<?xml version="1.0" encoding="UTF-8" standalone="no"?>
<!DOCTYPE svg PUBLIC "-//W3C//DTD SVG 1.1//EN" "http://www.w3.org/Graphics/SVG/1.1/DTD/svg11.dtd">
<svg xmlns:inkscape="http://www.inkscape.org/namespaces/inkscape" xmlns:sodipodi="http://sodipodi.sourceforge.net/DTD/sodipodi-0.dtd" fill="white" width="100%" height="100%" viewBox="-52.5 -52.5 455 455" version="1.1" xmlns="http://www.w3.org/2000/svg" xmlns:xlink="http://www.w3.org/1999/xlink" xml:space="preserve" xmlns:serif="http://www.serif.com/" style="fill-rule:evenodd;clip-rule:evenodd;stroke-linejoin:round;stroke-miterlimit:2;">
   <sodipodi:namedview pagecolor="#000000" />
<g id="Captain" transform="matrix(7.61113,0,0,7.61113,-1397.57,-4574.09)">
        <path d="M228.512,623.966L221.84,622.274C221.464,619.016 220.211,616.228 218.08,613.91L219.866,610.715L216.671,612.5C214.353,610.37 211.564,609.117 208.306,608.741L206.615,602.068L204.923,608.741C201.665,609.117 198.877,610.37 196.559,612.5L193.363,610.715L195.149,613.91C193.019,616.228 191.766,619.016 191.39,622.274L184.717,623.966L191.39,625.658C191.766,628.916 193.019,631.704 195.149,634.022L193.363,637.218L196.559,635.432C198.877,637.562 201.665,638.815 204.923,639.191L206.615,645.864L208.306,639.191C211.564,638.815 214.353,637.562 216.671,635.432L219.866,637.218L218.08,634.022C220.211,631.704 221.464,628.916 221.84,625.658L228.512,623.966ZM214.697,613.44L210.186,615.978L208.87,610.903C211.063,611.279 213.005,612.124 214.697,613.44ZM204.359,610.903L203.043,615.978L198.532,613.44C200.224,612.124 202.166,611.279 204.359,610.903ZM196.089,615.884L198.626,620.395L193.551,621.711C193.927,619.518 194.773,617.575 196.089,615.884ZM196.089,632.049C194.773,630.357 193.927,628.415 193.551,626.222L198.626,627.537L196.089,632.049ZM198.532,634.492L203.043,631.955L204.359,637.03C202.166,636.654 200.224,635.808 198.532,634.492ZM207.555,627.819L206.615,631.579L205.675,627.819C204.986,627.569 204.578,627.381 204.453,627.255L202.01,628.571L203.325,626.128C203.2,626.002 203.012,625.595 202.761,624.906L199.002,623.966L202.761,623.026C203.012,622.337 203.2,621.93 203.325,621.804L202.01,619.361L204.453,620.677C204.578,620.551 204.986,620.363 205.675,620.113L206.615,616.354L207.555,620.113C208.244,620.363 208.651,620.551 208.776,620.677L211.22,619.361L209.904,621.804C210.029,621.93 210.217,622.337 210.468,623.026L214.227,623.966L210.468,624.906C210.217,625.595 210.029,626.002 209.904,626.128L211.22,628.571L208.776,627.255C208.651,627.381 208.244,627.569 207.555,627.819ZM208.87,637.03L210.186,631.955L214.697,634.492C213.005,635.808 211.063,636.654 208.87,637.03ZM217.141,632.049L214.603,627.537L219.678,626.222C219.302,628.415 218.456,630.357 217.141,632.049ZM214.603,620.395L217.047,615.884C218.425,617.575 219.302,619.518 219.678,621.711L214.603,620.395Z" style="fill-rule:nonzero;"/>
    </g>
</svg>
