<?xml version="1.0" encoding="UTF-8" standalone="no"?>
<!DOCTYPE svg PUBLIC "-//W3C//DTD SVG 1.1//EN" "http://www.w3.org/Graphics/SVG/1.1/DTD/svg11.dtd">
<svg width="100%" height="100%" viewBox="0 0 350 350" version="1.1" xmlns="http://www.w3.org/2000/svg" xmlns:xlink="http://www.w3.org/1999/xlink" xml:space="preserve" xmlns:serif="http://www.serif.com/" style="fill-rule:evenodd;clip-rule:evenodd;stroke-linejoin:round;stroke-miterlimit:2;">
    <g id="Radar-short-and-long" serif:id="Radar short and long" transform="matrix(4.16667,0,0,4.16667,-624.948,-2224.95)">
        <g id="Inner" transform="matrix(0.545255,0,0,0.545255,87.2932,471.297)">
            <path d="M192.009,152.111C214.025,152.111 231.899,169.985 231.899,192.001C231.899,214.016 214.025,231.89 192.009,231.89C169.994,231.89 152.12,214.016 152.12,192.001C152.12,169.985 169.994,152.111 192.009,152.111ZM192.009,159.447C174.043,159.447 159.456,174.034 159.456,192.001C159.456,209.968 174.043,224.554 192.009,224.554C209.976,224.554 224.563,209.968 224.563,192.001C224.563,174.034 209.976,159.447 192.009,159.447Z"/>
        </g>
        <g id="Outer" transform="matrix(0.769625,0,0,0.769625,44.2121,428.218)">
            <path d="M192.009,152.111C214.025,152.111 231.899,169.985 231.899,192.001C231.899,214.016 214.025,231.89 192.009,231.89C169.994,231.89 152.12,214.016 152.12,192.001C152.12,169.985 169.994,152.111 192.009,152.111ZM192.009,157.309C172.862,157.309 157.317,172.854 157.317,192.001C157.317,211.148 172.862,226.693 192.009,226.693C211.157,226.693 226.702,211.148 226.702,192.001C226.702,172.854 211.157,157.309 192.009,157.309Z"/>
        </g>
        <g id="Dot" transform="matrix(1.23134,0,0,1.23134,-44.2025,339.272)">
            <circle cx="191.815" cy="192.241" r="6.253"/>
        </g>
    </g>
</svg>
