<?xml version="1.0" encoding="UTF-8" standalone="no"?>
<!DOCTYPE svg PUBLIC "-//W3C//DTD SVG 1.1//EN" "http://www.w3.org/Graphics/SVG/1.1/DTD/svg11.dtd">
<svg xmlns:inkscape="http://www.inkscape.org/namespaces/inkscape" xmlns:sodipodi="http://sodipodi.sourceforge.net/DTD/sodipodi-0.dtd" fill="white" width="100%" height="100%" viewBox="-52.5 -52.5 455 455" version="1.1" xmlns="http://www.w3.org/2000/svg" xmlns:xlink="http://www.w3.org/1999/xlink" xml:space="preserve" xmlns:serif="http://www.serif.com/" style="fill-rule:evenodd;clip-rule:evenodd;stroke-linejoin:round;stroke-miterlimit:2;">
   <sodipodi:namedview pagecolor="#000000" />
<g id="Radar-short" serif:id="Radar short" transform="matrix(4.2268,0,0,4.2268,-636.585,-638.197)">
        <g id="Circle" transform="matrix(0.5375,0,0,0.5375,88.8044,89.1906)">
            <path d="M192.009,152.111C214.025,152.111 231.899,169.985 231.899,192.001C231.899,214.016 214.025,231.89 192.009,231.89C169.994,231.89 152.12,214.016 152.12,192.001C152.12,169.985 169.994,152.111 192.009,152.111ZM192.009,159.447C174.043,159.447 159.456,174.034 159.456,192.001C159.456,209.968 174.043,224.554 192.009,224.554C209.976,224.554 224.563,209.968 224.563,192.001C224.563,174.034 209.976,159.447 192.009,159.447Z"/>
        </g>
        <g id="Dot" transform="matrix(1.22794,0,0,1.22794,-43.5379,-43.6702)">
            <circle cx="191.815" cy="192.241" r="6.253"/>
        </g>
    </g>
</svg>
