<?xml version="1.0" encoding="UTF-8" standalone="no"?>
<!DOCTYPE svg PUBLIC "-//W3C//DTD SVG 1.1//EN" "http://www.w3.org/Graphics/SVG/1.1/DTD/svg11.dtd">
<svg width="100%" height="100%" viewBox="0 0 350 350" version="1.1" xmlns="http://www.w3.org/2000/svg" xmlns:xlink="http://www.w3.org/1999/xlink" xml:space="preserve" xmlns:serif="http://www.serif.com/" style="fill-rule:evenodd;clip-rule:evenodd;stroke-linejoin:round;stroke-miterlimit:2;">
    <g id="Science" transform="matrix(4.16667,0,0,4.16667,-3291.67,-1691.66)">
        <g id="Orbits" transform="matrix(1.86673,0,0,1.86673,446.306,-618.882)">
            <path d="M225.505,561.468C226.821,563.912 225.348,567.264 221.088,571.524C225.348,575.785 226.821,579.137 225.505,581.58C224.064,584.212 220.117,584.807 213.663,583.366C212.912,586.311 211.909,588.645 210.656,590.368C209.403,592.091 208.056,592.952 206.615,592.952C205.174,592.952 203.827,592.091 202.574,590.368C201.32,588.645 200.318,586.311 199.566,583.366C193.113,584.807 189.165,584.212 187.724,581.58C186.409,579.137 187.881,575.785 192.142,571.524C187.881,567.264 186.409,563.912 187.724,561.468C189.165,558.837 193.113,558.242 199.566,559.683C200.318,556.738 201.32,554.404 202.574,552.681C203.827,550.958 205.174,550.096 206.615,550.096C208.056,550.096 209.403,550.958 210.656,552.681C211.909,554.404 212.912,556.738 213.663,559.683C220.117,558.242 224.064,558.837 225.505,561.468ZM213.569,575.659C213.695,573.905 213.757,572.527 213.757,571.524C213.757,570.522 213.695,569.143 213.569,567.389C212.316,566.575 211.126,565.854 209.998,565.227C208.494,564.476 207.367,563.943 206.615,563.63C205.863,563.943 204.735,564.476 203.231,565.227C202.104,565.854 200.913,566.575 199.66,567.389C199.535,569.143 199.472,570.522 199.472,571.524C199.472,572.527 199.535,573.905 199.66,575.659C200.913,576.474 202.104,577.195 203.231,577.821C204.735,578.573 205.863,579.105 206.615,579.419C207.367,579.105 208.494,578.573 209.998,577.821C211.126,577.195 212.316,576.474 213.569,575.659ZM201.258,560.152C202.949,560.591 204.735,561.249 206.615,562.126C208.494,561.249 210.28,560.591 211.972,560.152C210.531,556.268 208.745,554.326 206.615,554.326C204.484,554.326 202.699,556.268 201.258,560.152ZM191.39,579.607C192.455,581.549 195.024,582.207 199.096,581.58C198.72,579.513 198.47,577.821 198.344,576.505C196.277,575.064 194.648,573.842 193.457,572.84C191.076,575.597 190.387,577.852 191.39,579.607ZM214.979,568.423C215.042,569.112 215.073,570.146 215.073,571.524C215.073,572.903 215.042,573.936 214.979,574.626C216.483,573.498 217.673,572.464 218.55,571.524C217.673,570.584 216.483,569.551 214.979,568.423ZM213.287,565.603C213.099,564.162 212.818,562.878 212.442,561.75C210.875,562.126 209.528,562.533 208.4,562.972C208.902,563.16 209.653,563.504 210.656,564.006C211.596,564.507 212.473,565.04 213.287,565.603ZM221.84,563.442C220.775,561.5 218.206,560.842 214.133,561.468C214.509,563.536 214.76,565.227 214.885,566.543C216.953,567.984 218.582,569.206 219.772,570.209C222.153,567.452 222.842,565.196 221.84,563.442ZM200.788,561.75C200.412,562.815 200.13,564.068 199.942,565.509C200.193,565.321 200.616,565.071 201.211,564.758C201.806,564.444 202.26,564.194 202.574,564.006L204.829,562.878C203.576,562.439 202.229,562.063 200.788,561.75ZM198.25,574.626C198.188,573.936 198.156,572.903 198.156,571.524C198.156,570.146 198.188,569.112 198.25,568.423C196.747,569.551 195.556,570.584 194.679,571.524C195.556,572.464 196.747,573.498 198.25,574.626ZM198.344,566.543C198.47,565.227 198.72,563.536 199.096,561.468C195.024,560.842 192.455,561.5 191.39,563.442C190.387,565.196 191.076,567.452 193.457,570.209C194.648,569.206 196.277,567.984 198.344,566.543ZM199.942,577.445C200.13,578.886 200.412,580.171 200.788,581.298C202.354,580.922 203.701,580.515 204.829,580.077C204.328,579.889 203.576,579.544 202.574,579.043C201.634,578.542 200.757,578.009 199.942,577.445ZM211.972,582.896C210.28,582.457 208.494,581.8 206.615,580.922C204.735,581.8 202.949,582.457 201.258,582.896C202.699,586.781 204.484,588.723 206.615,588.723C208.745,588.723 210.531,586.781 211.972,582.896ZM212.442,581.298C212.818,580.233 213.099,578.98 213.287,577.539C213.037,577.727 212.614,577.978 212.019,578.291C211.423,578.604 210.969,578.855 210.656,579.043L208.4,580.171C209.653,580.609 211.001,580.985 212.442,581.298ZM221.84,579.607C222.842,577.852 222.153,575.597 219.772,572.84C218.582,573.842 216.953,575.064 214.885,576.505C214.76,577.821 214.509,579.513 214.133,581.58C218.206,582.207 220.775,581.549 221.84,579.607Z"/>
        </g>
        <g id="Dot" transform="matrix(1.23134,0,0,1.23134,595.81,211.285)">
            <circle cx="191.815" cy="192.241" r="6.253"/>
        </g>
    </g>
</svg>
