<?xml version="1.0" encoding="UTF-8" standalone="no"?>
<!DOCTYPE svg PUBLIC "-//W3C//DTD SVG 1.1//EN" "http://www.w3.org/Graphics/SVG/1.1/DTD/svg11.dtd">
<svg width="100%" height="100%" viewBox="0 0 350 350" version="1.1" xmlns="http://www.w3.org/2000/svg" xmlns:xlink="http://www.w3.org/1999/xlink" xml:space="preserve" xmlns:serif="http://www.serif.com/" style="fill-rule:evenodd;clip-rule:evenodd;stroke-linejoin:round;stroke-miterlimit:2;">
    <g id="Drone-ops" serif:id="Drone ops" transform="matrix(4.01672,0,0,4.01672,-3682.52,-1110.91)">
        <g id="Ship" transform="matrix(0.459789,0,0,0.459789,636.296,266.92)">
            <path d="M678,102.5L704,25.5L730,103.05L704,84L678,102.5Z" style="fill-rule:nonzero;"/>
        </g>
        <g id="Ship1" serif:id="Ship" transform="matrix(-0.365958,0.278354,-0.278354,-0.365958,1254.93,175.002)">
            <path d="M678,102.5L704,25.5L730,103.05L704,84L678,102.5Z" style="fill-rule:nonzero;"/>
        </g>
        <g id="Ship2" serif:id="Ship" transform="matrix(0.365958,0.278354,0.278354,-0.365958,665.798,175.002)">
            <path d="M678,102.5L704,25.5L730,103.05L704,84L678,102.5Z" style="fill-rule:nonzero;"/>
        </g>
        <g id="Dot" transform="matrix(1.27731,0,0,1.27731,714.98,78.2067)">
            <circle cx="191.815" cy="192.241" r="6.253"/>
        </g>
    </g>
</svg>
