<?xml version="1.0" encoding="UTF-8" standalone="no"?>
<svg
   width="100%"
   height="100%"
   viewBox="0 0 350 350"
   version="1.1"
   xml:space="preserve"
   style="fill-rule:evenodd;clip-rule:evenodd;stroke-linejoin:round;stroke-miterlimit:2;"
   id="svg2"
   sodipodi:docname="radar-short-long.svg"
   inkscape:version="1.4.3 (0d15f75042, 2025-12-25)"
   inkscape:export-filename="radar-short-long.png"
   inkscape:export-xdpi="37.52462"
   inkscape:export-ydpi="37.52462"
   xmlns:inkscape="http://www.inkscape.org/namespaces/inkscape"
   xmlns:sodipodi="http://sodipodi.sourceforge.net/DTD/sodipodi-0.dtd"
   xmlns="http://www.w3.org/2000/svg"
   xmlns:svg="http://www.w3.org/2000/svg"
   xmlns:serif="http://www.serif.com/"><defs
   id="defs2" /><sodipodi:namedview
   id="namedview2"
   pagecolor="#ffffff"
   bordercolor="#000000"
   borderopacity="0.25"
   inkscape:showpageshadow="2"
   inkscape:pageopacity="0.0"
   inkscape:pagecheckerboard="0"
   inkscape:deskcolor="#d1d1d1"
   inkscape:zoom="1.1573662"
   inkscape:cx="495.95365"
   inkscape:cy="376.71741"
   inkscape:window-width="1805"
   inkscape:window-height="1107"
   inkscape:window-x="0"
   inkscape:window-y="0"
   inkscape:window-maximized="1"
   inkscape:current-layer="Radar-short-and-long" />
    <g
   id="Radar-short-and-long"
   serif:id="Radar short and long"
   transform="matrix(4.16667,0,0,4.16667,-624.948,-2224.95)"
   style="display:inline">
        <g
   id="Inner"
   transform="matrix(0.545255,0,0,0.545255,87.2932,471.297)">
            
        <path
   id="path1-1"
   style="fill-rule:evenodd;clip-rule:evenodd;stroke-linejoin:round;stroke-miterlimit:2;display:inline;stroke-width:2.2719;fill:#000000;fill-opacity:1"
   d="M 174.99805 84.369141 C 124.98222 84.369141 84.375 124.97799 84.375 174.99609 C 84.375 225.01192 124.98222 265.61914 174.99805 265.61914 C 225.01615 265.61914 265.625 225.01192 265.625 174.99609 C 265.625 156.04337 259.79362 138.44191 249.83008 123.88867 L 237.71289 135.79688 C 244.83719 147.16417 248.95898 160.60321 248.95898 174.99609 C 248.95898 215.81528 215.81723 248.95312 174.99805 248.95312 C 134.18113 248.95313 101.04102 215.81528 101.04102 174.99609 C 101.04102 134.1769 134.18113 101.03711 174.99805 101.03711 C 189.85199 101.03711 203.68988 105.42464 215.2832 112.97461 L 227.40039 101.06641 C 212.60197 90.553467 194.51593 84.369141 174.99805 84.369141 z "
   transform="matrix(0.44016067,0,0,0.44016067,114.98143,114.97478)" /></g>
        <g
   id="Outer"
   transform="matrix(0.769625,0,0,0.769625,44.2121,428.218)">
            
        <path
   id="path2-5"
   style="fill-rule:evenodd;clip-rule:evenodd;stroke-linejoin:round;stroke-miterlimit:2;display:inline;stroke-width:3.20677;fill:#000000;fill-opacity:1"
   d="m 174.99805,47.078125 c -70.59711,0 -127.914066,57.317645 -127.914066,127.917965 0,70.59712 57.316956,127.91602 127.914066,127.91602 70.60033,0 127.91797,-57.3189 127.91797,-127.91602 0,-29.14007 -9.76429,-56.01706 -26.19727,-77.535152 l -11.99219,11.787112 c 13.5296,18.42414 21.52539,41.15928 21.52539,65.74804 0,61.40009 -49.8506,111.25 -111.2539,111.25 -61.40009,0 -111.24805,-49.84991 -111.24805,-111.25 0,-61.40009 49.84796,-111.248043 111.24805,-111.248043 25.28199,0 48.60535,8.449373 67.29687,22.677734 l 11.99219,-11.785156 c -21.80316,-17.255047 -49.35174,-27.5625 -79.28906,-27.5625 z"
   transform="matrix(0.31183993,0,0,0.31183993,137.43745,137.43001)" /></g>
        <g
   id="Dot"
   transform="matrix(1.23134,0,0,1.23134,-44.2025,339.272)"
   style="fill:#000000;fill-opacity:1">
            <circle
   cx="191.815"
   cy="192.241"
   r="6.2529998"
   id="circle2"
   style="fill:#000000;fill-opacity:1" />
        </g>
    <path
   style="fill-rule:evenodd;clip-rule:evenodd;stroke-linejoin:round;stroke-miterlimit:2;display:inline;fill:none;stroke:#000000;stroke-width:16;stroke-dasharray:none;stroke-opacity:1;paint-order:markers fill stroke"
   d="M 175,175 268.58358,83.649864"
   id="path3"
   sodipodi:nodetypes="cc"
   transform="matrix(0.23999981,0,0,0.23999981,149.9874,533.98757)" /></g>
</svg>
