<?xml version="1.0" encoding="UTF-8" standalone="no"?>
<svg
   width="100%"
   height="100%"
   viewBox="-52.5 -52.5 455 455"
   version="1.1"
   xml:space="preserve"
   style="fill-rule:evenodd;clip-rule:evenodd;stroke-linejoin:round;stroke-miterlimit:2;"
   id="svg2"
   sodipodi:docname="station-radar.svg"
   inkscape:version="1.4.3 (0d15f75042, 2025-12-25)"
   inkscape:export-filename="radar-short-long.png"
   inkscape:export-xdpi="37.52462"
   inkscape:export-ydpi="37.52462"
   xmlns:inkscape="http://www.inkscape.org/namespaces/inkscape"
   xmlns:sodipodi="http://sodipodi.sourceforge.net/DTD/sodipodi-0.dtd"
   xmlns="http://www.w3.org/2000/svg"
   xmlns:svg="http://www.w3.org/2000/svg"
   xmlns:serif="http://www.serif.com/"><defs
   id="defs2" /><sodipodi:namedview
   id="namedview2"
   pagecolor="#000000"
   bordercolor="#ffffff"
   borderopacity="0.25"
   inkscape:showpageshadow="2"
   inkscape:pageopacity="0.0"
   inkscape:pagecheckerboard="0"
   inkscape:deskcolor="#d1d1d1"
   inkscape:zoom="3.1308496"
   inkscape:cx="251.36947"
   inkscape:cy="203.77856"
   inkscape:window-width="1805"
   inkscape:window-height="1107"
   inkscape:window-x="0"
   inkscape:window-y="0"
   inkscape:window-maximized="1"
   inkscape:current-layer="g4" />
    <g
   id="Radar-short-and-long"
   serif:id="Radar short and long"
   transform="matrix(4.16667,0,0,4.16667,-624.948,-2224.95)"
   style="display:inline">
        <g
   id="Inner"
   transform="matrix(0.545255,0,0,0.545255,87.2932,471.297)">
            
        <path
   id="path1-1"
   style="fill-rule:evenodd;clip-rule:evenodd;stroke-linejoin:round;stroke-miterlimit:2;display:inline;stroke-width:2.2719;fill:#ffffff;fill-opacity:1"
   d="M 174.99805 84.369138 C 124.98222 84.369138 84.375002 124.97799 84.375002 174.99609 C 84.375002 225.01192 124.98222 265.61914 174.99805 265.61914 C 225.01615 265.61914 265.625 225.01192 265.625 174.99609 C 265.625 161.34441 262.59962 148.39463 257.1836 136.77929 L 244.36914 149.3125 C 244.36936 149.31308 244.36893 149.31387 244.36914 149.31445 C 247.33602 157.31561 248.95899 165.9686 248.95899 174.99609 C 248.95899 215.81528 215.81723 248.95312 174.99805 248.95312 C 134.18113 248.95313 101.04102 215.81528 101.04102 174.99609 C 101.04102 134.1769 134.18113 101.03711 174.99805 101.03711 C 184.71922 101.03711 194.00527 102.91702 202.51172 106.33203 L 215.30274 93.816403 C 203.15976 87.770435 189.47307 84.369138 174.99805 84.369138 z "
   transform="matrix(0.44016067,0,0,0.44016067,114.98143,114.97478)" /></g>
        <g
   id="Outer"
   transform="matrix(0.769625,0,0,0.769625,44.2121,428.218)">
            
        <path
   id="path2-5"
   style="fill-rule:evenodd;clip-rule:evenodd;stroke-linejoin:round;stroke-miterlimit:2;display:inline;stroke-width:3.20677;fill:#ffffff;fill-opacity:1"
   d="M 174.99806 47.078131 C 104.40095 47.078131 47.083995 104.39578 47.083995 174.9961 C 47.083995 245.59322 104.40095 302.91212 174.99806 302.91212 C 245.59839 302.91212 302.91603 245.59322 302.91603 174.9961 C 302.91603 151.11574 296.35866 128.75598 284.94728 109.61915 L 272.63673 121.66016 C 281.31523 137.49952 286.25197 155.67595 286.25197 174.9961 C 286.25197 236.39619 236.40136 286.2461 174.99806 286.2461 C 113.59797 286.2461 63.750011 236.39619 63.750011 174.9961 C 63.750011 113.59601 113.59797 63.748053 174.99806 63.748053 C 195.30343 63.748053 214.34473 69.19764 230.73829 78.71485 L 230.74025 78.71485 L 243.03908 66.681647 C 223.32675 54.264767 199.9954 47.078131 174.99806 47.078131 z "
   transform="matrix(0.31183993,0,0,0.31183993,137.43745,137.43001)" /></g>
        <g
   id="Dot"
   transform="matrix(1.23134,0,0,1.23134,-44.2025,339.272)"
   style="fill:#ffffff;fill-opacity:1">
            <circle
   cx="191.815"
   cy="192.241"
   r="6.2529998"
   id="circle2"
   style="fill:#ffffff;fill-opacity:1" />
        </g>
    <g
   id="g4"
   inkscape:label="Bar"><path
     style="fill-rule:evenodd;clip-rule:evenodd;stroke-linejoin:round;stroke-miterlimit:2;display:inline;fill:none;stroke:#ffffff;stroke-width:16;stroke-dasharray:none;stroke-opacity:1;paint-order:markers fill stroke"
     d="M 175,175 268.58358,83.649864"
     id="path3"
     sodipodi:nodetypes="cc"
     transform="matrix(0.23999981,0,0,0.23999981,149.9874,533.98757)" /></g></g>
</svg>
