<?xml version="1.0" encoding="UTF-8" standalone="no"?>
<svg
   fill="white"
   width="100%"
   height="100%"
   viewBox="-52.5 -52.5 455 455"
   version="1.1"
   xml:space="preserve"
   style="fill-rule:evenodd;clip-rule:evenodd;stroke-linejoin:round;stroke-miterlimit:2;"
   id="svg5"
   sodipodi:docname="station-tactical.svg"
   inkscape:version="1.4.3 (0d15f75042, 2025-12-25)"
   inkscape:export-filename="station-tactical.png"
   inkscape:export-xdpi="23.040001"
   inkscape:export-ydpi="23.040001"
   xmlns:inkscape="http://www.inkscape.org/namespaces/inkscape"
   xmlns:sodipodi="http://sodipodi.sourceforge.net/DTD/sodipodi-0.dtd"
   xmlns="http://www.w3.org/2000/svg"
   xmlns:svg="http://www.w3.org/2000/svg"
   xmlns:serif="http://www.serif.com/"><defs
   id="defs5" />
   <sodipodi:namedview
   pagecolor="#000000"
   id="namedview1"
   bordercolor="#000000"
   borderopacity="0.25"
   inkscape:showpageshadow="2"
   inkscape:pageopacity="0.0"
   inkscape:pagecheckerboard="0"
   inkscape:deskcolor="#d1d1d1"
   inkscape:zoom="0.90316126"
   inkscape:cx="282.34161"
   inkscape:cy="34.323882"
   inkscape:window-width="1805"
   inkscape:window-height="1107"
   inkscape:window-x="0"
   inkscape:window-y="0"
   inkscape:window-maximized="1"
   inkscape:current-layer="Compass" />
<g
   id="Tactical"
   transform="matrix(2.94628,2.94628,-2.94628,2.94628,1683.5,-1710.63)">
        <g
   id="Compass"
   transform="matrix(1.84249,0,0,1.84249,-139.369,-477.026)">
            <path
   id="path1"
   d="m 82.45693,572.94736 4.155592,0.84731 8.918151,-5.41523 c -0.139097,1.05609 -0.256862,2.13221 -0.354035,3.23021 l -5.472968,3.34624 4.218016,0.91117 1.691379,-1.0657 c 0.522897,2.72848 1.785445,5.09373 3.786446,7.09473 1.417399,1.4174 3.148609,2.674 5.164269,3.49448 l -3.6e-4,-7.2e-4 c 0.45284,0.1913 0.91837,0.36242 1.39653,0.51324 l 4.41698,7.33093 4.41806,-7.33093 c 2.318,-0.751 4.36995,-2.0041 6.15495,-3.7591 1.786,-1.754 3.05514,-3.82199 3.80714,-6.20299 l 7.32985,-4.41698 -7.32985,-4.41698 c -0.1551,-0.47807 -0.34637,-0.93767 -0.54545,-1.39311 l 0.0212,0.008 c -0.0307,-0.0754 -0.0717,-0.14347 -0.10362,-0.21803 -0.0303,-0.0666 -0.063,-0.13209 -0.0943,-0.19824 -0.81842,-1.83393 -1.98036,-3.43177 -3.29659,-4.74799 -2.001,-2.001 -4.36625,-3.26355 -7.09472,-3.78645 l 1.0657,-1.69138 -0.91117,-4.21801 -3.34642,5.47314 c -1.09801,0.0972 -2.17395,0.21476 -3.23003,0.35386 l 5.41522,-8.91815 -0.84731,-4.15559 -8.40221,14.60825 -1.8e-4,1.8e-4 c -1.33072,0.71021 -2.54062,1.61963 -3.630296,2.72794 -1.082387,1.10213 -1.950486,2.31802 -2.651304,3.62274 l -0.01601,-0.0426 z m 19.13317,-10.21035 c 1.51757,-1.51756 3.29489,-2.57089 5.33229,-3.16058 l 0.027,0.0101 c 1.72247,-0.44772 3.52865,-0.45641 5.28209,-0.27956 1.76672,0.43903 3.17649,0.77079 4.56648,1.60215 0.0517,0.0315 0.1022,0.0651 0.15345,0.0973 0.41993,0.25988 0.82333,0.55037 1.2134,0.86404 0.2258,0.18374 0.44803,0.37366 0.66381,0.5753 0.11472,0.10647 0.23336,0.20674 0.34486,0.31824 0.33339,0.33339 0.78838,0.8792 1.36343,1.63903 l 0.0459,0.0164 c 0.98867,1.40693 1.65959,2.99208 2.01214,4.75554 l 3.94709,2.3489 -3.94691,2.35016 c -0.501,2.506 -1.64507,4.65193 -3.43007,6.43793 -1.786,1.785 -3.93193,2.92907 -6.43793,3.43007 l -2.35016,3.94691 -2.34908,-3.94691 c -1.77149,-0.35416 -3.36309,-1.02955 -4.77479,-2.02563 -7e-5,-4e-5 -1.1e-4,-1.3e-4 -1.8e-4,-1.8e-4 l -0.008,-0.0216 c -0.64156,-0.48555 -1.13058,-0.8854 -1.46795,-1.19883 -0.0629,-0.0604 -0.12541,-0.12185 -0.18745,-0.18385 -0.14781,-0.14781 -0.29113,-0.2979 -0.43013,-0.45064 -1.631385,-1.80845 -2.70625,-3.99081 -2.999761,-6.39763 -0.273767,-2.24491 -0.131348,-3.59251 0.268765,-5.35658 l -0.0058,-0.0155 c 0.588461,-2.04669 1.643996,-3.83152 3.167066,-5.3546 z"
   sodipodi:nodetypes="cccccccscccccccccccccccccccccccccccccccccccscccccccccccccccscccc" />
        </g>
        <g
   id="Weapons"
   transform="matrix(0.99855,0,0,0.99855,-383.517,0.835094)">
            <g
   id="Dagger"
   transform="matrix(1.30537,1.30537,-0.89487,0.89487,366.269,-511.924)">
                <path
   d="M447.988,565.268L451.244,582.378L447.988,593.835L444.744,582.343L447.988,565.268Z"
   id="path2" />
            </g>
            <g
   id="Dagger1"
   serif:id="Dagger"
   transform="matrix(1.30537,1.30537,0.89487,-0.89487,-639.891,494.236)">
                <path
   d="M447.988,565.268L451.244,582.378L447.988,593.835L444.744,582.343L447.988,565.268Z"
   id="path3" />
            </g>
            <g
   id="Dagger2"
   serif:id="Dagger"
   transform="matrix(-1.30537,1.30537,-0.89487,-0.89487,1535.87,494.236)">
                <path
   d="M447.988,565.268L451.244,582.378L447.988,593.835L444.744,582.343L447.988,565.268Z"
   id="path4" />
            </g>
            <g
   id="Dagger3"
   serif:id="Dagger"
   transform="matrix(-1.30537,1.30537,0.89487,0.89487,529.706,-511.924)">
                <path
   d="M447.988,565.268L451.244,582.378L447.988,593.835L444.744,582.343L447.988,565.268Z"
   id="path5" />
            </g>
        </g>
    </g>
</svg>
