<?xml version="1.0" encoding="UTF-8" standalone="no"?>
<!DOCTYPE svg PUBLIC "-//W3C//DTD SVG 1.1//EN" "http://www.w3.org/Graphics/SVG/1.1/DTD/svg11.dtd">
<svg width="100%" height="100%" viewBox="0 0 350 350" version="1.1" xmlns="http://www.w3.org/2000/svg" xmlns:xlink="http://www.w3.org/1999/xlink" xml:space="preserve" xmlns:serif="http://www.serif.com/" style="fill-rule:evenodd;clip-rule:evenodd;stroke-linejoin:round;stroke-miterlimit:2;">
    <g id="Comms-only" serif:id="Comms only" transform="matrix(4.16667,0,0,4.16667,-2758.33,-1691.66)">
        <g id="Left-outer" serif:id="Left outer" transform="matrix(1.86673,0,0,1.86673,408.13,-618.882)">
            <path d="M146.654,579.231C145.151,576.913 144.399,574.344 144.399,571.524C144.399,568.705 145.166,566.136 146.701,563.818C148.236,561.5 150.226,559.808 152.669,558.743L151.635,556.581C148.753,557.897 146.435,559.902 144.681,562.596C142.926,565.29 142.049,568.266 142.049,571.524C142.049,574.782 142.926,577.758 144.681,580.453C146.435,583.147 148.753,585.152 151.635,586.467L152.669,584.306C150.163,583.178 148.158,581.486 146.654,579.231Z"/>
        </g>
        <g id="Right-outer" serif:id="Right outer" transform="matrix(1.86673,0,0,1.86673,408.13,-618.882)">
            <path d="M165.263,556.581L164.323,558.743C166.829,559.871 168.834,561.578 170.338,563.865C171.841,566.152 172.593,568.705 172.593,571.524C172.593,574.344 171.841,576.897 170.338,579.184C168.834,581.471 166.829,583.178 164.323,584.306L165.263,586.467C168.145,585.152 170.479,583.162 172.264,580.5C174.05,577.837 174.943,574.845 174.943,571.524C174.943,568.204 174.05,565.212 172.264,562.549C170.479,559.886 168.145,557.897 165.263,556.581Z"/>
        </g>
        <g id="Top" transform="matrix(1.86673,0,0,1.86673,408.394,-618.882)">
            <path d="M162.631,555.829L158.402,550.096L154.079,555.829L158.402,565.134L162.631,555.829Z"/>
        </g>
        <g id="Bottom" transform="matrix(1.86673,0,0,1.86673,407.867,-618.882)">
            <path d="M154.361,587.219L158.59,592.952L162.913,587.219L158.59,577.915L154.361,587.219Z"/>
        </g>
        <g id="Dot" transform="matrix(1.23134,0,0,1.23134,467.81,211.285)">
            <circle cx="191.815" cy="192.241" r="6.253"/>
        </g>
    </g>
</svg>
