<?xml version="1.0" encoding="UTF-8" standalone="no"?>
<svg
   fill="white"
   width="100%"
   height="100%"
   viewBox="-52.5 -52.5 455 455"
   version="1.1"
   xml:space="preserve"
   style="fill-rule:evenodd;clip-rule:evenodd;stroke-linejoin:round;stroke-miterlimit:2;"
   id="svg4"
   sodipodi:docname="station-operations.svg"
   inkscape:version="1.4.3 (0d15f75042, 2025-12-25)"
   xmlns:inkscape="http://www.inkscape.org/namespaces/inkscape"
   xmlns:sodipodi="http://sodipodi.sourceforge.net/DTD/sodipodi-0.dtd"
   xmlns="http://www.w3.org/2000/svg"
   xmlns:svg="http://www.w3.org/2000/svg"><defs
   id="defs4" />
   <sodipodi:namedview
   pagecolor="#000000"
   id="namedview1"
   bordercolor="#000000"
   borderopacity="0.25"
   inkscape:showpageshadow="2"
   inkscape:pageopacity="0.0"
   inkscape:pagecheckerboard="0"
   inkscape:deskcolor="#d1d1d1"
   inkscape:zoom="0.79793093"
   inkscape:cx="563.95859"
   inkscape:cy="423.59556"
   inkscape:window-width="1805"
   inkscape:window-height="1107"
   inkscape:window-x="0"
   inkscape:window-y="0"
   inkscape:window-maximized="1"
   inkscape:current-layer="svg4" />

<g
   id="Science"
   transform="matrix(4.16667,0,0,4.16667,-3291.67,-1691.66)"
   style="clip-rule:evenodd;fill-rule:evenodd;stroke-linejoin:round;stroke-miterlimit:2">
        <g
   id="Orbits"
   transform="matrix(1.86673,0,0,1.86673,446.306,-618.882)">
            <path
   id="path1-6"
   style="display:inline"
   d="M 193.28933 558.95029 C 190.4306 559.00404 188.55084 559.85315 187.65022 561.49753 C 186.33522 563.94153 187.8072 567.29362 192.0682 571.55362 C 187.8072 575.81462 186.33522 579.16647 187.65022 581.60947 C 189.09122 584.24147 194.75637 584.8572 199.49219 583.39559 C 199.90304 583.26879 200.38191 583.1135 200.89362 582.9431 L 201.76848 581.01811 C 200.8913 581.26478 200.00456 581.47119 199.09594 581.58009 C 195.02394 582.20709 192.45496 581.54889 191.38996 579.60689 C 190.38696 577.85189 191.07607 575.59704 193.45707 572.84004 C 196.32326 575.21692 199.42382 577.23064 202.69406 578.98163 L 203.22364 577.81674 C 202.09837 577.19161 200.80075 576.45033 199.65993 575.65898 C 197.83272 574.39152 194.42459 571.52399 194.42459 571.52399 C 194.42459 571.52399 197.83272 568.65647 199.65993 567.38901 C 200.80328 566.59591 202.10392 565.85397 203.23092 565.22697 C 203.25054 565.21718 203.2702 565.20731 203.28968 565.19759 L 202.73022 563.99353 C 201.26063 564.7357 199.42607 565.72511 198.34412 566.54303 C 196.25888 568.11941 194.64807 569.20594 193.45707 570.20894 C 191.07607 567.45194 190.38696 565.1961 191.38996 563.4421 C 192.18871 561.9856 193.83339 561.25114 196.32372 561.23914 C 197.15382 561.23514 198.07794 561.31139 199.09594 561.46789 L 201.86766 562.1371 L 200.93932 560.13878 L 199.49219 559.71265 C 197.07231 559.17228 195.00457 558.91804 193.28933 558.95029 z M 219.79221 558.95054 C 218.077 558.91831 216.00935 559.17228 213.5891 559.71265 L 212.34562 560.08655 L 211.39668 562.17526 L 214.133 561.46789 C 215.15125 561.31139 216.07548 561.23514 216.90573 561.23914 C 219.39648 561.25114 221.04124 561.9856 221.83999 563.4421 C 222.84199 565.1961 222.15312 567.45194 219.77212 570.20894 C 218.58212 569.20594 216.90566 567.97033 214.88507 566.54303 C 213.79142 565.7705 211.98107 564.76696 210.561 564.01412 L 210.00756 565.23224 C 211.13275 565.85801 212.31952 566.57728 213.56901 567.38901 L 218.80285 571.52399 L 213.56901 575.65898 C 212.31601 576.47398 211.12602 577.19501 209.99802 577.82101 C 209.97875 577.83064 209.95941 577.84032 209.94026 577.84989 L 210.49395 579.04114 C 211.9533 578.29306 213.78709 577.29946 214.88507 576.50496 C 216.86468 575.07251 218.61507 573.80177 219.77212 572.84004 C 222.15312 575.59704 222.84199 577.85189 221.83999 579.60689 C 220.77499 581.54889 218.206 582.20709 214.133 581.58009 L 211.35801 580.90084 L 212.35089 583.03802 L 212.35114 583.03802 C 212.79944 583.17927 213.22045 583.30227 213.5891 583.39559 C 219.54187 584.90248 223.99007 584.24147 225.43107 581.60947 C 226.74707 579.16647 225.2741 575.81462 221.0141 571.55362 C 225.2741 567.29362 226.74707 563.94153 225.43107 561.49753 C 224.53045 559.85315 222.65088 559.00426 219.79221 558.95054 z " />
        </g><g
   id="path1-60"
   style="opacity:1"><path
     style="baseline-shift:baseline;clip-rule:nonzero;display:inline;overflow:visible;vector-effect:none;fill-rule:nonzero;stroke-linejoin:miter;enable-background:accumulate;stop-color:#000000;stop-opacity:1"
     d="m 839.98365,418.70066 -7.8944,-10.70196 -8.06988,10.70196 8.06988,17.36992 z"
     id="path5" /></g><g
   id="path1-9"
   style="opacity:1"><path
     style="baseline-shift:baseline;clip-rule:nonzero;display:inline;overflow:visible;vector-effect:none;fill-rule:nonzero;stroke-linejoin:miter;enable-background:accumulate;stop-color:#000000;stop-opacity:1"
     d="m 824.0188,477.29731 7.89441,10.70197 8.06987,-10.70197 -8.06987,-17.36805 z"
     id="path7" /></g>
        <g
   id="Dot-7"
   transform="matrix(1.23134,0,0,1.23134,595.81,211.285)">
            <circle
   cx="191.815"
   cy="192.241"
   r="6.2529998"
   id="circle1" />
        </g>
    </g></svg>
