<?xml version="1.0" encoding="UTF-8" standalone="no"?>
<!DOCTYPE svg PUBLIC "-//W3C//DTD SVG 1.1//EN" "http://www.w3.org/Graphics/SVG/1.1/DTD/svg11.dtd">
<svg width="100%" height="100%" viewBox="0 0 350 350" version="1.1" xmlns="http://www.w3.org/2000/svg" xmlns:xlink="http://www.w3.org/1999/xlink" xml:space="preserve" xmlns:serif="http://www.serif.com/" style="fill-rule:evenodd;clip-rule:evenodd;stroke-linejoin:round;stroke-miterlimit:2;">
    <g id="Engineering" transform="matrix(3.18501,0,0,3.18501,-2856.25,-2959.47)">
        <g id="Gear" transform="matrix(2.60184,0,0,2.60184,-211.84,-366.437)">
            <path d="M463.843,515.511C463.341,513.381 462.558,511.501 461.493,509.872L463.655,507.053L459.238,502.636L456.418,504.797C454.601,503.607 452.722,502.824 450.779,502.448L450.309,498.97L444.107,498.97L443.637,502.448C441.506,502.949 439.627,503.732 437.998,504.797L435.178,502.636L430.761,507.053L432.923,509.872C431.732,511.689 430.949,513.569 430.573,515.511L427.096,515.981L427.096,522.184L430.573,522.654C431.074,524.784 431.858,526.664 432.923,528.293L430.761,531.112L435.178,535.529L437.998,533.368C438.624,533.869 439.282,534.245 439.971,534.495L439.595,531.77C439.282,530.329 438.718,529.201 437.904,528.387C435.022,525.379 433.769,521.839 434.144,517.767C434.458,514.634 435.774,511.94 438.092,509.684C440.41,507.429 443.167,506.207 446.362,506.019C446.55,505.956 446.832,505.925 447.208,505.925C450.842,505.925 453.943,507.209 456.512,509.778C459.081,512.347 460.365,515.449 460.365,519.082C460.365,522.779 459.05,525.88 456.418,528.387C455.604,529.326 455.102,530.423 454.914,531.676L454.445,534.495C455.134,534.245 455.792,533.869 456.418,533.368L459.238,535.529L463.655,531.112L461.493,528.293C462.684,526.476 463.467,524.596 463.843,522.654L467.32,522.184L467.32,515.981L463.843,515.511Z"/>
        </g>
        <g id="Spanner" transform="matrix(2.60184,0,0,2.60184,-211.84,-366.437)">
            <path d="M452.377,510.906C455.384,512.786 456.888,515.511 456.888,519.082C456.888,521.651 455.948,523.938 454.069,525.943C452.69,527.322 451.844,529.045 451.531,531.112L450.309,539.195L444.107,539.195L442.885,531.206C442.572,529.076 441.726,527.322 440.347,525.943C438.154,523.75 437.215,521.15 437.528,518.143C437.841,515.01 439.345,512.598 442.039,510.906C442.039,510.906 444.193,509.436 447.208,509.436C450.566,509.436 452.377,510.906 452.377,510.906ZM444.196,522.099L444.95,525.116L449.475,525.116L450.23,522.099L453.246,521.345L453.246,516.82L450.23,516.066L449.475,513.049L444.95,513.049L444.196,516.066L441.179,516.82L441.179,521.345L444.196,522.099Z"/>
        </g>
    </g>
</svg>
