<?xml version="1.0" encoding="UTF-8" standalone="no"?>
<!DOCTYPE svg PUBLIC "-//W3C//DTD SVG 1.1//EN" "http://www.w3.org/Graphics/SVG/1.1/DTD/svg11.dtd">
<svg width="100%" height="100%" viewBox="0 0 350 350" version="1.1" xmlns="http://www.w3.org/2000/svg" xmlns:xlink="http://www.w3.org/1999/xlink" xml:space="preserve" xmlns:serif="http://www.serif.com/" style="fill-rule:evenodd;clip-rule:evenodd;stroke-linejoin:round;stroke-miterlimit:2;">
    <g id="Single-pilot" serif:id="Single pilot" transform="matrix(4.16667,0,0,4.16667,-91.6687,-2225.01)">
        <g id="Compass" transform="matrix(1.84249,0,0,1.84249,-139.369,-477.026)">
            <path d="M124.757,567.107L132.087,571.524L124.757,575.941C124.005,578.322 122.736,580.39 120.95,582.144C119.165,583.899 117.113,585.152 114.795,585.903L110.377,593.234L105.96,585.903C103.579,585.152 101.512,583.899 99.757,582.144C98.003,580.39 96.75,578.322 95.998,575.941L88.668,571.524L95.998,567.107C96.75,564.789 98.003,562.737 99.757,560.951C101.512,559.166 103.579,557.897 105.96,557.145L110.377,549.814L114.795,557.145C117.113,557.897 119.165,559.166 120.95,560.951C122.736,562.737 124.005,564.789 124.757,567.107ZM122.595,573.874L126.542,571.524L122.595,569.175C122.094,566.669 120.95,564.523 119.165,562.737C117.379,560.951 115.233,559.808 112.727,559.307L110.377,555.359L108.028,559.307C105.522,559.808 103.376,560.951 101.59,562.737C99.804,564.523 98.661,566.669 98.16,569.175L94.213,571.524L98.16,573.874C98.661,576.38 99.804,578.526 101.59,580.312C103.376,582.097 105.522,583.241 108.028,583.742L110.377,587.689L112.727,583.742C115.233,583.241 117.379,582.097 119.165,580.312C120.95,578.526 122.094,576.38 122.595,573.874Z"/>
        </g>
        <g id="Flame" transform="matrix(1.84249,0,0,1.84249,-139.369,-477.026)">
            <path d="M107.84,576.787L110.377,581.862L112.915,576.787L110.377,575.096L107.84,576.787Z"/>
        </g>
        <g id="Ship" transform="matrix(1.84249,0,0,1.84249,-139.369,-477.026)">
            <path d="M103.423,578.009L110.377,573.404L117.332,578.009L110.377,561.656L103.423,578.009Z"/>
        </g>
    </g>
</svg>
