<?xml version="1.0" encoding="UTF-8" standalone="no"?>
<!DOCTYPE svg PUBLIC "-//W3C//DTD SVG 1.1//EN" "http://www.w3.org/Graphics/SVG/1.1/DTD/svg11.dtd">
<svg width="100%" height="100%" viewBox="0 0 350 350" version="1.1" xmlns="http://www.w3.org/2000/svg" xmlns:xlink="http://www.w3.org/1999/xlink" xml:space="preserve" xmlns:serif="http://www.serif.com/" style="fill-rule:evenodd;clip-rule:evenodd;stroke-linejoin:round;stroke-miterlimit:2;">
    <g id="Relay" transform="matrix(4.16667,0,0,4.16667,-2758.33,-1691.66)">
        <g id="Left-inner" serif:id="Left inner" transform="matrix(1.86673,0,0,1.86673,408.13,-618.882)">
            <path d="M150.508,576.693C149.505,575.127 149.004,573.404 149.004,571.524C149.004,569.645 149.505,567.922 150.508,566.355C151.51,564.789 152.857,563.661 154.549,562.972L153.703,560.998C151.635,561.875 149.975,563.27 148.722,565.181C147.469,567.091 146.842,569.206 146.842,571.524C146.842,573.842 147.469,575.957 148.722,577.868C149.975,579.779 151.635,581.173 153.703,582.05L154.549,580.077C152.857,579.387 151.51,578.26 150.508,576.693Z"/>
        </g>
        <g id="Left-outer" serif:id="Left outer" transform="matrix(1.86673,0,0,1.86673,408.13,-618.882)">
            <path d="M146.654,579.231C145.151,576.913 144.399,574.344 144.399,571.524C144.399,568.705 145.166,566.136 146.701,563.818C148.236,561.5 150.226,559.808 152.669,558.743L151.635,556.581C148.753,557.897 146.435,559.902 144.681,562.596C142.926,565.29 142.049,568.266 142.049,571.524C142.049,574.782 142.926,577.758 144.681,580.453C146.435,583.147 148.753,585.152 151.635,586.467L152.669,584.306C150.163,583.178 148.158,581.486 146.654,579.231Z"/>
        </g>
        <g id="Right-inner" serif:id="Right inner" transform="matrix(1.86673,0,0,1.86673,408.13,-618.882)">
            <path d="M168.27,577.915C169.523,575.973 170.15,573.842 170.15,571.524C170.15,569.206 169.523,567.091 168.27,565.181C167.017,563.27 165.357,561.875 163.289,560.998L162.443,562.972C164.072,563.724 165.404,564.867 166.438,566.402C167.471,567.937 167.988,569.645 167.988,571.524C167.988,573.404 167.471,575.111 166.438,576.646C165.404,578.181 164.072,579.325 162.443,580.077L163.289,582.05C165.357,581.173 167.017,579.795 168.27,577.915Z"/>
        </g>
        <g id="Right-outer" serif:id="Right outer" transform="matrix(1.86673,0,0,1.86673,408.13,-618.882)">
            <path d="M165.263,556.581L164.323,558.743C166.829,559.871 168.834,561.578 170.338,563.865C171.841,566.152 172.593,568.705 172.593,571.524C172.593,574.344 171.841,576.897 170.338,579.184C168.834,581.471 166.829,583.178 164.323,584.306L165.263,586.467C168.145,585.152 170.479,583.162 172.264,580.5C174.05,577.837 174.943,574.845 174.943,571.524C174.943,568.204 174.05,565.212 172.264,562.549C170.479,559.886 168.145,557.897 165.263,556.581Z"/>
        </g>
        <g id="Top" transform="matrix(1.86673,0,0,1.86673,408.394,-618.882)">
            <path d="M162.631,555.829L158.402,550.096L154.079,555.829L158.402,565.134L162.631,555.829Z"/>
        </g>
        <g id="Bottom" transform="matrix(1.86673,0,0,1.86673,407.867,-618.882)">
            <path d="M154.361,587.219L158.59,592.952L162.913,587.219L158.59,577.915L154.361,587.219Z"/>
        </g>
        <g id="Dot" transform="matrix(1.23134,0,0,1.23134,467.81,211.285)">
            <circle cx="191.815" cy="192.241" r="6.253"/>
        </g>
    </g>
</svg>
