<?xml version="1.0" encoding="UTF-8" standalone="no"?>
<!DOCTYPE svg PUBLIC "-//W3C//DTD SVG 1.1//EN" "http://www.w3.org/Graphics/SVG/1.1/DTD/svg11.dtd">
<svg width="100%" height="100%" viewBox="0 0 350 350" version="1.1" xmlns="http://www.w3.org/2000/svg" xmlns:xlink="http://www.w3.org/1999/xlink" xml:space="preserve" xmlns:serif="http://www.serif.com/" style="fill-rule:evenodd;clip-rule:evenodd;stroke-linejoin:round;stroke-miterlimit:2;">
    <g id="Helms" transform="matrix(4.24708,0,0,4.24708,-1184.07,-1727.7)">
        <g id="Starboard-wing" serif:id="Starboard wing" transform="matrix(1.79961,0,0,1.79961,34.7689,-674.895)">
            <path d="M180.112,604.982L164.229,609.305L165.921,613.346C169.868,616.04 171.841,619.737 171.841,624.436C171.841,624.937 171.779,625.689 171.654,626.692L173.439,630.827C174.316,628.759 174.755,626.629 174.755,624.436C174.755,621.491 174.003,618.766 172.499,616.26L174.285,615.696L176.541,611.936L170.526,613.534C169.523,612.532 168.709,611.811 168.082,611.373L177.856,608.741L180.112,604.982Z"/>
        </g>
        <g id="Port-wing" serif:id="Port wing" transform="matrix(1.79961,0,0,1.79961,34.7689,-674.895)">
            <path d="M143.553,630.827L145.339,626.692C145.213,625.689 145.151,624.937 145.151,624.436C145.151,619.737 147.124,616.04 151.072,613.346L152.763,609.305L136.88,604.982L139.136,608.741L148.91,611.373C148.095,612.062 147.281,612.782 146.466,613.534L140.452,611.936L142.707,615.79L144.587,616.26C143.083,618.703 142.331,621.429 142.331,624.436C142.331,626.566 142.738,628.696 143.553,630.827Z"/>
        </g>
        <g id="Flame" transform="matrix(1.79961,0,0,1.79961,34.7689,-674.895)">
            <path d="M152.951,634.868L158.496,645.77L164.041,634.868L158.496,631.109L152.951,634.868Z"/>
        </g>
        <g id="Ship" transform="matrix(1.79961,0,0,1.79961,34.7689,-674.895)">
            <path d="M143.459,637.405L158.496,602.162L173.533,637.405L158.496,627.537L143.459,637.405ZM164.041,626.034L158.496,613.064L152.951,626.034L158.496,622.462L164.041,626.034Z"/>
        </g>
    </g>
</svg>
