<?xml version="1.0" encoding="UTF-8" standalone="no"?>
<svg
   fill="white"
   width="100%"
   height="100%"
   viewBox="-52.5 -52.5 455 455"
   version="1.1"
   xml:space="preserve"
   style="fill-rule:evenodd;clip-rule:evenodd;stroke-linejoin:round;stroke-miterlimit:2;"
   id="svg9"
   sodipodi:docname="station-strategic-map.svg"
   inkscape:version="1.4.3 (0d15f75042, 2025-12-25)"
   inkscape:export-filename="station-strategic-map.png"
   inkscape:export-xdpi="23.040001"
   inkscape:export-ydpi="23.040001"
   xmlns:inkscape="http://www.inkscape.org/namespaces/inkscape"
   xmlns:sodipodi="http://sodipodi.sourceforge.net/DTD/sodipodi-0.dtd"
   xmlns="http://www.w3.org/2000/svg"
   xmlns:svg="http://www.w3.org/2000/svg"
   xmlns:serif="http://www.serif.com/">
<defs
   id="defs9">
            
        
            
        </defs>
<sodipodi:namedview
   id="namedview9"
   pagecolor="#000000"
   bordercolor="#000000"
   borderopacity="0.25"
   inkscape:showpageshadow="2"
   inkscape:pageopacity="0.0"
   inkscape:pagecheckerboard="0"
   inkscape:deskcolor="#d1d1d1"
   showgrid="false"
   showguides="true"
   inkscape:zoom="0.34323365"
   inkscape:cx="-522.96737"
   inkscape:cy="585.60692"
   inkscape:window-width="1805"
   inkscape:window-height="1107"
   inkscape:window-x="0"
   inkscape:window-y="0"
   inkscape:window-maximized="1"
   inkscape:current-layer="svg9"><sodipodi:guide
     position="60.839965,226.74964"
     orientation="1,0"
     id="guide1"
     inkscape:locked="false" /><sodipodi:guide
     position="227.16016,394.16406"
     orientation="0,-1"
     id="guide2"
     inkscape:locked="false" /><sodipodi:guide
     position="225.99012,60.822678"
     orientation="0,-1"
     id="guide3"
     inkscape:locked="false" /><sodipodi:guide
     position="394.17262,227.77421"
     orientation="1,0"
     id="guide4"
     inkscape:locked="false" /><sodipodi:guide
     position="58.837866,227.55177"
     orientation="0,-1"
     id="guide5"
     inkscape:locked="false" /><sodipodi:guide
     position="227.56345,60.730572"
     orientation="1,0"
     id="guide6"
     inkscape:locked="false" /></sodipodi:namedview>
    <g
   id="Weapons"
   transform="matrix(4.16063,0,0,4.16063,-1688.91,-2221.34)"
   style="display:none">
        <g
   id="Dagger"
   transform="matrix(0,1.84607,-1.26554,0,1159.45,-251.075)">
            <path
   d="m 447.988,565.268 3.256,17.11 -3.256,11.457 -3.244,-11.492 z"
   id="path1" />
        </g>
        <g
   id="Dagger1"
   serif:id="Dagger"
   transform="matrix(0,1.84607,1.26554,0,-263.475,-251.075)">
            <path
   d="m 447.988,565.268 3.256,17.11 -3.256,11.457 -3.244,-11.492 z"
   id="path2" />
        </g>
        <g
   id="Dagger2"
   serif:id="Dagger"
   transform="matrix(-1.84607,0,0,-1.26554,1275.02,1287.42)">
            <path
   d="m 447.988,565.268 3.256,17.11 -3.256,11.457 -3.244,-11.492 z"
   id="path3" />
        </g>
        <g
   id="Dagger3"
   serif:id="Dagger"
   transform="matrix(-1.84607,0,0,1.26554,1275.02,-135.508)">
            <path
   d="m 447.988,565.268 3.256,17.11 -3.256,11.457 -3.244,-11.492 z"
   id="path4" />
        </g>
        <g
   id="Ring"
   transform="matrix(-0.816143,-0.816143,0.816143,-0.816143,342.438,1409.43)">
            <path
   d="m 445.978,551.445 c 13.149,0 23.826,10.676 23.826,23.826 0,13.15 -10.677,23.826 -23.826,23.826 -13.15,0 -23.826,-10.676 -23.826,-23.826 0,-13.15 10.676,-23.826 23.826,-23.826 z m 0,3.904 c -10.995,0 -19.922,8.927 -19.922,19.922 0,10.995 8.927,19.922 19.922,19.922 10.995,0 19.921,-8.927 19.921,-19.922 0,-10.995 -8.926,-19.922 -19.921,-19.922 z"
   id="path5" />
        </g>
        <g
   id="Thorn"
   transform="matrix(-0.704489,-0.704489,0.704489,-0.704489,357.885,1297.32)">
            <path
   d="m 448.057,589.499 4.407,19.071 h -8.815 z"
   id="path6" />
        </g>
        <g
   id="Thorn1"
   serif:id="Thorn"
   transform="matrix(-0.704489,-0.704489,-0.704489,0.704489,1169.31,485.893)">
            <path
   d="m 448.057,589.499 4.407,19.071 h -8.815 z"
   id="path7" />
        </g>
        <g
   id="Thorn2"
   serif:id="Thorn"
   transform="matrix(0.704489,-0.704489,0.704489,0.704489,-273.417,485.893)">
            <path
   d="m 448.057,589.499 4.407,19.071 h -8.815 z"
   id="path8" />
        </g>
        <g
   id="Thorn3"
   serif:id="Thorn"
   transform="matrix(0.704489,-0.704489,-0.704489,-0.704489,538.009,1297.32)">
            <path
   d="m 448.057,589.499 4.407,19.071 h -8.815 z"
   id="path9" />
        </g>
    </g>
<path
   style="clip-rule:evenodd;fill:none;fill-opacity:1;fill-rule:evenodd;stroke:#ffffff;stroke-width:16;stroke-linejoin:round;stroke-miterlimit:2;stroke-opacity:1;stroke-dasharray:none"
   d="m 8.3286,317.51715 h 333.345"
   id="path10-5" /><path
   style="clip-rule:evenodd;fill:none;fill-opacity:1;fill-rule:evenodd;stroke:#ffffff;stroke-width:16;stroke-linejoin:round;stroke-miterlimit:2;stroke-opacity:1;stroke-dasharray:none"
   d="m 8.3286,32.51715 h 333.345"
   id="path10-5-5" /><path
   style="clip-rule:evenodd;fill:none;fill-opacity:1;fill-rule:evenodd;stroke:#ffffff;stroke-width:16;stroke-linejoin:round;stroke-miterlimit:2;stroke-opacity:1;stroke-dasharray:none"
   d="M 32.5,8.9790765 V 341.67201"
   id="path11-2"
   sodipodi:nodetypes="cc" /><path
   style="clip-rule:evenodd;fill:none;fill-opacity:1;fill-rule:evenodd;stroke:#ffffff;stroke-width:16;stroke-linejoin:round;stroke-miterlimit:2;stroke-opacity:1;stroke-dasharray:none"
   d="M 317.5,8.9790765 V 341.67201"
   id="path11-1"
   sodipodi:nodetypes="cc" /><g
   id="Dot"
   transform="matrix(5.1305874,0,0,5.1305874,-809.12635,-811.30513)"
   style="clip-rule:evenodd;fill-rule:evenodd;stroke-linejoin:round;stroke-miterlimit:2">
            <circle
   cx="191.815"
   cy="192.241"
   r="6.2529998"
   id="circle1" />
        </g><g
   id="g11"><path
     id="path10"
     style="baseline-shift:baseline;clip-rule:nonzero;display:inline;overflow:visible;opacity:1;vector-effect:none;fill-rule:nonzero;stroke-width:1.41422;stroke-linejoin:miter;enable-background:accumulate;stop-color:#000000;stop-opacity:1"
     d="m 8.328125,158.63701 v 32 H 119.65576 c -0.49225,-5.0513 -0.74014,-10.18568 -0.74023,-15.33202 3.1e-4,-5.60202 0.29423,-11.18854 0.87695,-16.66798 z m 221.875375,0 c 0.58206,5.47958 0.87533,11.0661 0.875,16.66798 5.4e-4,5.14622 -0.24669,10.28058 -0.73828,15.33202 h 111.33361 v -32 z"
     sodipodi:nodetypes="cccccccccccc" /><path
     id="path11"
     style="baseline-shift:baseline;clip-rule:nonzero;display:inline;overflow:visible;opacity:1;vector-effect:none;fill-rule:nonzero;stroke-width:1.41419;stroke-linejoin:miter;enable-background:accumulate;stop-color:#000000;stop-opacity:1"
     d="m 159.05813,8.9785156 -0.001,110.7382744 c 5.22432,-0.52748 10.54083,-0.79312 15.8706,-0.79297 5.41764,-4.3e-4 10.82139,0.27376 16.1284,0.81836 l 0.001,-110.7636644 z m 31.999,221.2873244 c -5.30687,0.54526 -10.71064,0.82011 -16.1284,0.82032 -5.32977,1.5e-4 -10.64628,-0.26549 -15.8706,-0.79297 v 111.37869 h 31.999 z"
     sodipodi:nodetypes="cccccccscccc" /></g></svg>
