<?xml version="1.0" encoding="UTF-8" standalone="no"?>
<svg
   fill="white"
   width="100%"
   height="100%"
   viewBox="-52.5 -52.5 455 455"
   version="1.1"
   xml:space="preserve"
   style="fill-rule:evenodd;clip-rule:evenodd;stroke-linejoin:round;stroke-miterlimit:2;"
   id="svg9"
   sodipodi:docname="station-weapons.svg"
   inkscape:version="1.4.3 (0d15f75042, 2025-12-25)"
   xmlns:inkscape="http://www.inkscape.org/namespaces/inkscape"
   xmlns:sodipodi="http://sodipodi.sourceforge.net/DTD/sodipodi-0.dtd"
   xmlns="http://www.w3.org/2000/svg"
   xmlns:svg="http://www.w3.org/2000/svg"
   xmlns:serif="http://www.serif.com/">
<defs
   id="defs9" />
<sodipodi:namedview
   id="namedview9"
   pagecolor="#000000"
   bordercolor="#000000"
   borderopacity="0.25" />
    <g
   id="Weapons"
   transform="matrix(4.16063,0,0,4.16063,-1688.91,-2221.34)">
        <g
   id="Dagger"
   transform="matrix(1.13039e-16,1.84607,-1.26554,7.74918e-17,1159.45,-251.075)">
            <path
   d="M447.988,565.268L451.244,582.378L447.988,593.835L444.744,582.343L447.988,565.268Z"
   id="path1" />
        </g>
        <g
   id="Dagger1"
   serif:id="Dagger"
   transform="matrix(1.13039e-16,1.84607,1.26554,-7.74918e-17,-263.475,-251.075)">
            <path
   d="M447.988,565.268L451.244,582.378L447.988,593.835L444.744,582.343L447.988,565.268Z"
   id="path2" />
        </g>
        <g
   id="Dagger2"
   serif:id="Dagger"
   transform="matrix(-1.84607,2.26079e-16,-1.54984e-16,-1.26554,1275.02,1287.42)">
            <path
   d="M447.988,565.268L451.244,582.378L447.988,593.835L444.744,582.343L447.988,565.268Z"
   id="path3" />
        </g>
        <g
   id="Dagger3"
   serif:id="Dagger"
   transform="matrix(-1.84607,2.26079e-16,1.54984e-16,1.26554,1275.02,-135.508)">
            <path
   d="M447.988,565.268L451.244,582.378L447.988,593.835L444.744,582.343L447.988,565.268Z"
   id="path4" />
        </g>
        <g
   id="Ring"
   transform="matrix(-0.816143,-0.816143,0.816143,-0.816143,342.438,1409.43)">
            <path
   d="M445.978,551.445C459.127,551.445 469.804,562.121 469.804,575.271C469.804,588.421 459.127,599.097 445.978,599.097C432.828,599.097 422.152,588.421 422.152,575.271C422.152,562.121 432.828,551.445 445.978,551.445ZM445.978,555.349C434.983,555.349 426.056,564.276 426.056,575.271C426.056,586.266 434.983,595.193 445.978,595.193C456.973,595.193 465.899,586.266 465.899,575.271C465.899,564.276 456.973,555.349 445.978,555.349Z"
   id="path5" />
        </g>
        <g
   id="Thorn"
   transform="matrix(-0.704489,-0.704489,0.704489,-0.704489,357.885,1297.32)">
            <path
   d="M448.057,589.499L452.464,608.57L443.649,608.57L448.057,589.499Z"
   id="path6" />
        </g>
        <g
   id="Thorn1"
   serif:id="Thorn"
   transform="matrix(-0.704489,-0.704489,-0.704489,0.704489,1169.31,485.893)">
            <path
   d="M448.057,589.499L452.464,608.57L443.649,608.57L448.057,589.499Z"
   id="path7" />
        </g>
        <g
   id="Thorn2"
   serif:id="Thorn"
   transform="matrix(0.704489,-0.704489,0.704489,0.704489,-273.417,485.893)">
            <path
   d="M448.057,589.499L452.464,608.57L443.649,608.57L448.057,589.499Z"
   id="path8" />
        </g>
        <g
   id="Thorn3"
   serif:id="Thorn"
   transform="matrix(0.704489,-0.704489,-0.704489,-0.704489,538.009,1297.32)">
            <path
   d="M448.057,589.499L452.464,608.57L443.649,608.57L448.057,589.499Z"
   id="path9" />
        </g>
    </g>
</svg>
