<?xml version="1.0" encoding="UTF-8" standalone="no"?>
<!DOCTYPE svg PUBLIC "-//W3C//DTD SVG 1.1//EN" "http://www.w3.org/Graphics/SVG/1.1/DTD/svg11.dtd">
<svg xmlns:inkscape="http://www.inkscape.org/namespaces/inkscape" xmlns:sodipodi="http://sodipodi.sourceforge.net/DTD/sodipodi-0.dtd" fill="white" width="100%" height="100%" viewBox="-52.5 -52.5 455 455" version="1.1" xmlns="http://www.w3.org/2000/svg" xmlns:xlink="http://www.w3.org/1999/xlink" xml:space="preserve" xmlns:serif="http://www.serif.com/" style="fill-rule:evenodd;clip-rule:evenodd;stroke-linejoin:round;stroke-miterlimit:2;">
   <sodipodi:namedview pagecolor="#000000" />
<g id="Operations" transform="matrix(4.16667,0,0,4.16667,-1691.67,-1691.66)">
        <g id="Orbits-right" serif:id="Orbits right" transform="matrix(1,0,0,1,0.0349278,0)">
            <path d="M475.5,447.61L475.2,448.016L475.5,448.39C495.515,467.772 477.506,477.146 456.33,468.321C456.102,468.226 455.403,467.944 455.25,467.75C454.095,466.285 455.125,465.505 456.588,465.639C458.522,465.817 461.672,466.699 462.475,466.745C487.105,468.165 473.81,451.27 472.85,451C470.54,450.86 451.57,467.59 452.5,460.75C473.901,447.758 474.951,449.229 456.179,437.693C455.084,437.02 453.07,436.204 452.5,435.27C451.09,428 472.64,445.64 472.64,445.64C482.376,433.45 471.909,431.102 463.801,430.645C461.5,430.516 454.764,431.233 454.4,431.07C452.75,430.33 455.464,427.865 456.473,427.661C478.137,423.299 495.57,427.69 475.5,447.61Z" style="fill-rule:nonzero;"/>
        </g>
        <g id="Orbits-left" serif:id="Orbits left" transform="matrix(1,0,0,1,0.0349278,0)">
            <path d="M437.46,426.45C439.528,426.93 442.804,431.139 440.51,430.66C438.395,430.219 437.262,429.761 435.701,429.469C422.401,426.983 412.806,432.167 423.34,445.61C423.84,445.28 443.751,428.259 443,435.46C442.894,436.481 439.009,438.152 437.327,439.179C421.893,448.595 421.584,447.62 439.603,458.189C440.314,458.605 443.402,459.602 443.5,460.57C443.595,461.504 443.177,461.852 442.329,461.79C437.998,461.472 423.36,450.36 423.36,450.36C411.605,464.989 424.549,469.926 438.462,465.781C439.167,465.572 440.645,464.998 441,465.09C441.833,465.305 442.419,467.063 439.25,468.39C415.3,476.44 402.03,467.07 420.5,448.39L420.814,447.999L420.5,447.61C403.73,430.39 412.15,420.58 437.46,426.45Z" style="fill-rule:nonzero;"/>
        </g>
        <g id="Top" transform="matrix(1.86673,0,0,1.86673,152.394,-618.882)">
            <path d="M162.631,555.829L158.402,550.096L154.079,555.829L158.402,565.134L162.631,555.829Z"/>
        </g>
        <g id="Bottom" transform="matrix(1.86673,0,0,1.86673,151.867,-618.882)">
            <path d="M154.361,587.219L158.59,592.952L162.913,587.219L158.59,577.915L154.361,587.219Z"/>
        </g>
        <g id="Dot" transform="matrix(1.23134,0,0,1.23134,211.81,211.285)">
            <circle cx="191.815" cy="192.241" r="6.253"/>
        </g>
    </g>
</svg>
