<?xml version="1.0" encoding="UTF-8" standalone="no"?>
<svg
   width="100%"
   height="100%"
   viewBox="-52.5 -52.5 455 455"
   version="1.1"
   xml:space="preserve"
   style="fill-rule:evenodd;clip-rule:evenodd;stroke-linejoin:round;stroke-miterlimit:2;"
   id="svg2"
   sodipodi:docname="station-engineering.svg"
   inkscape:version="1.4.3 (0d15f75042, 2025-12-25)"
   xmlns:inkscape="http://www.inkscape.org/namespaces/inkscape"
   xmlns:sodipodi="http://sodipodi.sourceforge.net/DTD/sodipodi-0.dtd"
   xmlns="http://www.w3.org/2000/svg"
   xmlns:svg="http://www.w3.org/2000/svg"><defs
   id="defs2" /><sodipodi:namedview
   id="namedview2"
   pagecolor="#000000"
   bordercolor="#ffffff"
   borderopacity="0.25"
   inkscape:showpageshadow="2"
   inkscape:pageopacity="0.0"
   inkscape:pagecheckerboard="0"
   inkscape:deskcolor="#d1d1d1"
   inkscape:zoom="2.5018801"
   inkscape:cx="192.65512"
   inkscape:cy="226.62957"
   inkscape:window-width="1805"
   inkscape:window-height="1107"
   inkscape:window-x="0"
   inkscape:window-y="0"
   inkscape:window-maximized="1"
   inkscape:current-layer="svg2" />
    <g
   id="Engineering"
   transform="matrix(3.18501,0,0,3.18501,-2856.25,-2959.47)"
   style="fill:#ffffff;fill-opacity:1">
        <g
   id="Gear"
   transform="matrix(2.60184,0,0,2.60184,-211.84,-366.437)"
   style="fill:#ffffff;fill-opacity:1">
            <path
   d="m 463.843,515.511 c -0.502,-2.13 -1.285,-4.01 -2.35,-5.639 l 2.162,-2.819 -4.417,-4.417 -2.82,2.161 c -1.817,-1.19 -3.696,-1.973 -5.639,-2.349 l -0.47,-3.478 h -6.202 l -0.47,3.478 c -2.131,0.501 -4.01,1.284 -5.639,2.349 l -2.82,-2.161 -4.417,4.417 2.162,2.819 c -1.191,1.817 -1.974,3.697 -2.35,5.639 l -3.477,0.47 v 6.203 l 3.477,0.47 c 0.501,2.13 1.285,4.01 2.35,5.639 l -2.162,2.819 4.417,4.417 2.82,-2.161 c 0.626,0.501 1.284,0.877 1.973,1.127 l -0.376,-2.725 c -0.313,-1.441 -0.877,-2.569 -1.691,-3.383 -2.882,-3.008 -3.84924,-5.50493 -3.84924,-9.30477 0,-3.51816 1.71924,-7.14223 4.03724,-9.39823 3.59912,-3.5013 7.92186,-3.759 9.116,-3.759 3.634,0 6.735,1.284 9.304,3.853 2.569,2.569 3.853,5.67123 3.853,9.30423 0,3.697 -1.315,6.79777 -3.947,9.30477 -0.814,0.939 -1.316,2.036 -1.504,3.289 l -0.469,2.819 c 0.689,-0.25 1.347,-0.626 1.973,-1.127 l 2.82,2.161 4.417,-4.417 -2.162,-2.819 c 1.191,-1.817 1.974,-3.697 2.35,-5.639 l 3.477,-0.47 v -6.203 z"
   id="path1"
   sodipodi:nodetypes="ccccccccccccccccccccccccscsssccccccccccc"
   style="fill:#ffffff;fill-opacity:1" />
        </g>
        <g
   id="Spanner"
   transform="matrix(2.60184,0,0,2.60184,-211.84,-366.437)"
   style="fill:#ffffff;fill-opacity:1">
            <path
   d="m 452.377,510.906 v 10.62 l -5.169,3.007 -5.169,-3.007 v -10.62 c -2.694,1.692 -4.198,4.104 -4.511,7.237 -0.313,3.007 0.626,5.607 2.819,7.8 1.379,1.379 2.225,3.03896 2.538,5.16896 l 1.222,8.08304 h 6.202 l 1.222,-8.08304 c 0.313,-2.067 1.159,-3.78996 2.538,-5.16896 1.879,-2.005 2.819,-4.292 2.819,-6.861 0,-3.571 -1.504,-6.296 -4.511,-8.176 z"
   id="path2"
   sodipodi:nodetypes="ccccccscccccsc"
   style="fill:#ffffff;fill-opacity:1" />
        </g>
    </g>
</svg>
