<?xml version="1.0" encoding="UTF-8" standalone="no"?>
<!DOCTYPE svg PUBLIC "-//W3C//DTD SVG 1.1//EN" "http://www.w3.org/Graphics/SVG/1.1/DTD/svg11.dtd">
<svg xmlns:inkscape="http://www.inkscape.org/namespaces/inkscape" xmlns:sodipodi="http://sodipodi.sourceforge.net/DTD/sodipodi-0.dtd" fill="white" width="100%" height="100%" viewBox="-52.5 -52.5 455 455" version="1.1" xmlns="http://www.w3.org/2000/svg" xmlns:xlink="http://www.w3.org/1999/xlink" xml:space="preserve" xmlns:serif="http://www.serif.com/" style="fill-rule:evenodd;clip-rule:evenodd;stroke-linejoin:round;stroke-miterlimit:2;">
   <sodipodi:namedview pagecolor="#000000" />
<g id="Target-lock" serif:id="Target lock" transform="matrix(4.16667,0,0,4.16667,-624.999,-625)">
        <g id="Dot" transform="matrix(1.23134,0,0,1.23134,-44.1899,-44.7148)">
            <circle cx="191.815" cy="192.241" r="6.253"/>
        </g>
        <g id="Reticule" transform="matrix(2.01713,0,0,2.01713,-321.831,-855.057)">
            <path d="M268.737,505.079C264.915,501.195 260.247,499.252 254.733,499.252C249.22,499.252 244.536,501.179 240.683,505.032C236.83,508.885 234.903,513.569 234.903,519.082C234.903,524.596 236.83,529.279 240.683,533.133C244.536,536.986 249.22,538.913 254.733,538.913C260.247,538.913 264.93,536.986 268.784,533.133C272.637,529.279 274.564,524.596 274.564,519.082C274.564,513.569 272.621,508.901 268.737,505.079ZM258.963,533.65L254.733,528.105L250.504,533.65C247.998,532.96 245.821,531.692 243.972,529.843C242.124,527.995 240.855,525.818 240.166,523.312L245.711,519.082L240.166,514.853C240.855,512.347 242.124,510.17 243.972,508.322C245.821,506.473 247.998,505.204 250.504,504.515L254.733,510.06L258.963,504.515C261.469,505.204 263.646,506.473 265.494,508.322C267.343,510.17 268.611,512.347 269.301,514.853L263.756,519.082L269.301,523.312C268.611,525.818 267.343,527.995 265.494,529.843C263.646,531.692 261.469,532.96 258.963,533.65Z" style="fill-rule:nonzero;"/>
        </g>
    </g>
</svg>
