<?xml version="1.0" encoding="UTF-8" standalone="no"?>
<!DOCTYPE svg PUBLIC "-//W3C//DTD SVG 1.1//EN" "http://www.w3.org/Graphics/SVG/1.1/DTD/svg11.dtd">
<svg xmlns:inkscape="http://www.inkscape.org/namespaces/inkscape" xmlns:sodipodi="http://sodipodi.sourceforge.net/DTD/sodipodi-0.dtd" fill="white" width="100%" height="100%" viewBox="-52.5 -52.5 455 455" version="1.1" xmlns="http://www.w3.org/2000/svg" xmlns:xlink="http://www.w3.org/1999/xlink" xml:space="preserve" xmlns:serif="http://www.serif.com/" style="fill-rule:evenodd;clip-rule:evenodd;stroke-linejoin:round;stroke-miterlimit:2;">
   <sodipodi:namedview pagecolor="#000000" />
<g transform="matrix(4.1511,0,0,4.1511,-2216.04,-622.325)">
        <path d="M616.15,194.48C603.13,198.7 592.26,209.8 594.53,227.54C592.98,227.97 589.73,230.4 588.5,229.44L588.5,219L583.5,219C582.69,225.06 586.23,233.44 578.75,231.75L578.47,219L573.53,219L573.25,231.75C565.77,233.44 569.31,225.06 568.5,219L563.5,219C562.67,227.53 566.59,232.92 557.47,227.48C559.72,209.81 548.86,198.69 535.85,194.48C536.26,138.08 615.74,138.08 616.15,194.48ZM605.46,183.5C594.78,183.25 586.92,186.59 580.97,191.23C585.21,200.01 612.76,200.36 605.46,183.5ZM546.54,183.5C539.22,200.33 566.81,200.04 571.03,191.23C565.1,186.55 557.18,183.31 546.54,183.5ZM582.5,210.08C575.5,192.38 576.56,192.35 569.5,210.08L576,206.79L582.5,210.08Z" style="fill-rule:nonzero;"/>
    </g>
</svg>
