<?xml version="1.0" encoding="UTF-8" standalone="no"?>
<!DOCTYPE svg PUBLIC "-//W3C//DTD SVG 1.1//EN" "http://www.w3.org/Graphics/SVG/1.1/DTD/svg11.dtd">
<svg width="100%" height="100%" viewBox="0 0 350 350" version="1.1" xmlns="http://www.w3.org/2000/svg" xmlns:xlink="http://www.w3.org/1999/xlink" xml:space="preserve" xmlns:serif="http://www.serif.com/" style="fill-rule:evenodd;clip-rule:evenodd;stroke-linejoin:round;stroke-miterlimit:2;">
    <g id="Target" transform="matrix(2.8881,0,0,2.8881,-1850.51,-3061.34)">
        <g id="Reticule" transform="matrix(2.60184,0,0,2.60184,-211.84,-366.437)">
            <path d="M373.056,569.175C373.056,569.425 373.072,569.817 373.103,570.35C373.135,570.882 373.15,571.274 373.15,571.524C373.15,571.963 373.088,572.746 372.962,573.874L367.981,573.874C367.48,577.007 366.352,579.669 364.598,581.862L366.29,583.554C365.538,584.494 364.441,585.59 363,586.843L361.309,585.152C359.053,586.906 356.39,588.034 353.32,588.535L353.32,593.516C352.318,593.641 351.535,593.704 350.971,593.704C350.407,593.704 349.624,593.641 348.621,593.516L348.621,588.535C345.551,588.034 342.888,586.906 340.633,585.152L338.941,586.843C337.688,585.903 336.591,584.807 335.652,583.554L337.249,581.862C335.432,579.419 334.336,576.756 333.96,573.874L328.885,573.874C328.885,573.623 328.869,573.232 328.838,572.699C328.807,572.166 328.791,571.775 328.791,571.524C328.791,571.211 328.807,570.804 328.838,570.303C328.869,569.801 328.885,569.425 328.885,569.175L333.96,569.175C334.336,566.293 335.432,563.63 337.249,561.186L335.652,559.495C336.591,558.242 337.688,557.145 338.941,556.205L340.633,557.803C343.076,555.986 345.739,554.89 348.621,554.514L348.621,549.439C348.872,549.439 349.263,549.423 349.796,549.392C350.328,549.36 350.72,549.345 350.971,549.345C351.284,549.345 351.691,549.36 352.192,549.392C352.694,549.423 353.07,549.439 353.32,549.439L353.32,554.514C356.39,555.015 359.053,556.143 361.309,557.897L363,556.205C364.253,557.145 365.35,558.242 366.29,559.495L364.692,561.186C366.509,563.63 367.605,566.293 367.981,569.175L373.056,569.175ZM358.771,569.175L364.128,569.175C363.627,566.418 362.389,564.053 360.416,562.079C358.442,560.105 356.077,558.868 353.32,558.367L353.32,563.724C352.318,563.473 351.535,563.348 350.971,563.348C350.407,563.348 349.624,563.473 348.621,563.724L348.621,558.367C345.927,558.868 343.577,560.105 341.572,562.079C339.568,564.053 338.314,566.418 337.813,569.175L343.17,569.175C342.92,570.177 342.794,570.96 342.794,571.524C342.794,572.088 342.92,572.871 343.17,573.874L337.813,573.874C338.314,576.568 339.568,578.918 341.572,580.922C343.577,582.927 345.927,584.18 348.621,584.682L348.621,579.325C349.624,579.575 350.407,579.701 350.971,579.701C351.535,579.701 352.318,579.575 353.32,579.325L353.32,584.682C356.077,584.18 358.442,582.927 360.416,580.922C362.389,578.918 363.627,576.568 364.128,573.874L358.771,573.874C359.022,572.871 359.147,572.088 359.147,571.524C359.147,570.96 359.022,570.177 358.771,569.175Z"/>
        </g>
        <g id="Dot" transform="matrix(1.77646,0,0,1.77646,360.578,779.07)">
            <circle cx="191.815" cy="192.241" r="6.253"/>
        </g>
    </g>
</svg>
