<?xml version="1.0" encoding="UTF-8" standalone="no"?>
<!DOCTYPE svg PUBLIC "-//W3C//DTD SVG 1.1//EN" "http://www.w3.org/Graphics/SVG/1.1/DTD/svg11.dtd">
<svg width="100%" height="100%" viewBox="0 0 350 350" version="1.1" xmlns="http://www.w3.org/2000/svg" xmlns:xlink="http://www.w3.org/1999/xlink" xml:space="preserve" xmlns:serif="http://www.serif.com/" style="fill-rule:evenodd;clip-rule:evenodd;stroke-linejoin:round;stroke-miterlimit:2;">
    <g id="Nuke" transform="matrix(4.16667,0,0,4.16667,-3825.04,-3291.68)">
        <g transform="matrix(1.90859,0,0,1.90859,106.473,-258.803)">
            <path d="M436.4,590.885C433.267,588.942 430.792,586.389 428.976,583.225C427.159,580.061 426.25,576.599 426.25,572.84L426.25,571.9L438.562,572.464L438.562,572.84C438.562,576.098 439.971,578.573 442.791,580.265L436.4,590.885Z"/>
        </g>
        <g transform="matrix(1.90859,0,0,1.90859,106.473,-258.803)">
            <path d="M436.494,554.796C439.815,552.853 443.386,551.882 447.208,551.882C451.03,551.882 454.601,552.853 457.922,554.796L451.625,565.415C450.184,564.601 448.712,564.194 447.208,564.194C445.704,564.194 444.232,564.601 442.791,565.415L436.494,554.796Z"/>
        </g>
        <g id="Dot" transform="matrix(1.23134,0,0,1.23134,723.81,597.258)">
            <circle cx="191.815" cy="192.241" r="6.253"/>
        </g>
        <g transform="matrix(1.90859,0,0,1.90859,106.473,-258.803)">
            <path d="M457.452,591.166L451.437,580.359C454.382,578.667 455.854,576.161 455.854,572.84L455.854,572.746L468.166,572.558L468.166,572.84C468.166,576.725 467.195,580.296 465.252,583.554C463.31,586.812 460.71,589.349 457.452,591.166Z"/>
        </g>
    </g>
</svg>
