<?xml version="1.0" encoding="UTF-8" standalone="no"?>
<!DOCTYPE svg PUBLIC "-//W3C//DTD SVG 1.1//EN" "http://www.w3.org/Graphics/SVG/1.1/DTD/svg11.dtd">
<svg xmlns:inkscape="http://www.inkscape.org/namespaces/inkscape" xmlns:sodipodi="http://sodipodi.sourceforge.net/DTD/sodipodi-0.dtd" fill="white" width="100%" height="100%" viewBox="-52.5 -52.5 455 455" version="1.1" xmlns="http://www.w3.org/2000/svg" xmlns:xlink="http://www.w3.org/1999/xlink" xml:space="preserve" xmlns:serif="http://www.serif.com/" style="fill-rule:evenodd;clip-rule:evenodd;stroke-linejoin:round;stroke-miterlimit:2;">
   <sodipodi:namedview pagecolor="#000000" />
<g id="Mine" transform="matrix(4.16667,0,0,4.16667,-3268.86,-4494.07)">
        <g transform="matrix(1.91718,0,0,1.91718,61.3998,24.8617)">
            <path d="M419.859,570.021C419.859,570.209 419.875,570.475 419.906,570.819C419.938,571.164 419.953,571.399 419.953,571.524C419.953,571.65 419.938,571.885 419.906,572.229C419.875,572.574 419.859,572.84 419.859,573.028L416.288,573.028C416.037,576.537 414.722,579.732 412.341,582.614L414.784,585.152C414.158,585.903 413.469,586.593 412.717,587.219L410.179,584.776C407.297,587.157 404.102,588.472 400.593,588.723L400.593,592.294C400.405,592.294 400.139,592.31 399.794,592.341C399.45,592.373 399.215,592.388 399.089,592.388C398.964,592.388 398.729,592.373 398.384,592.341C398.04,592.31 397.774,592.294 397.586,592.294L397.586,588.723C394.077,588.472 390.882,587.157 387.999,584.776L385.462,587.219C384.71,586.593 384.021,585.903 383.394,585.152L385.838,582.614C383.457,579.732 382.141,576.537 381.891,573.028L378.319,573.028C378.319,572.84 378.304,572.574 378.272,572.229C378.241,571.885 378.225,571.65 378.225,571.524C378.225,571.399 378.241,571.148 378.272,570.772C378.304,570.396 378.319,570.146 378.319,570.021L381.891,570.021C382.141,566.512 383.457,563.317 385.838,560.434L383.394,557.897C384.021,557.145 384.71,556.456 385.462,555.829L387.999,558.273C390.882,555.892 394.077,554.576 397.586,554.326L397.586,550.754C397.774,550.754 398.04,550.739 398.384,550.707C398.729,550.676 398.964,550.66 399.089,550.66C399.215,550.66 399.465,550.676 399.841,550.707C400.217,550.739 400.468,550.754 400.593,550.754L400.593,554.326C404.102,554.576 407.297,555.892 410.179,558.273L412.717,555.829C413.469,556.456 414.158,557.145 414.784,557.897L412.341,560.434C414.722,563.317 416.037,566.512 416.288,570.021L419.859,570.021ZM406.326,578.761C408.331,576.756 409.333,574.344 409.333,571.524C409.333,568.705 408.331,566.293 406.326,564.288C404.321,562.283 401.909,561.28 399.089,561.28C396.27,561.28 393.858,562.283 391.853,564.288C389.848,566.293 388.845,568.705 388.845,571.524C388.845,574.344 389.848,576.756 391.853,578.761C393.858,580.766 396.27,581.768 399.089,581.768C401.909,581.768 404.321,580.766 406.326,578.761Z"/>
        </g>
        <g transform="matrix(1.91718,0,0,1.91718,61.3998,24.8617)">
            <path d="M403.037,567.577C401.971,566.449 400.656,565.885 399.089,565.885C397.523,565.885 396.192,566.434 395.095,567.53C393.999,568.627 393.45,569.958 393.45,571.524C393.45,573.091 393.999,574.422 395.095,575.518C396.192,576.615 397.523,577.163 399.089,577.163C400.656,577.163 401.987,576.615 403.084,575.518C404.18,574.422 404.728,573.091 404.728,571.524C404.728,569.958 404.164,568.642 403.037,567.577Z"/>
        </g>
    </g>
</svg>
