<?xml version="1.0" encoding="UTF-8" standalone="no"?>
<!DOCTYPE svg PUBLIC "-//W3C//DTD SVG 1.1//EN" "http://www.w3.org/Graphics/SVG/1.1/DTD/svg11.dtd">
<svg width="100%" height="100%" viewBox="0 0 36 36" version="1.1" xmlns="http://www.w3.org/2000/svg" xmlns:xlink="http://www.w3.org/1999/xlink" xml:space="preserve" xmlns:serif="http://www.serif.com/" style="fill-rule:evenodd;clip-rule:evenodd;stroke-linecap:square;stroke-miterlimit:1.5;">
    <g id="Blockade-runner" serif:id="Blockade runner" transform="matrix(1,0,0,1,-192.237,-0.295836)">
        <g id="Ship">
            <g id="Nose" transform="matrix(1,0,0,1,194.009,2)">
                <path d="M24.004,13L26,13L31,16L26,19L24,19" style="fill:none;stroke:rgb(255,255,255);stroke-opacity:0.5;stroke-width:3px;"/>
            </g>
            <g id="Exhaust" transform="matrix(1,0,0,1,194,2)">
                <path id="Exhaust-starboard" serif:id="Exhaust starboard" d="M0.941,1L5.941,6L6.941,6" style="fill:none;stroke:rgb(255,255,255);stroke-opacity:0.5;stroke-width:3px;"/>
                <path id="Exhaust-port" serif:id="Exhaust port" d="M0.941,31L5.941,26L6.941,26" style="fill:none;stroke:rgb(255,255,255);stroke-opacity:0.5;stroke-width:3px;"/>
            </g>
            <g id="Hull">
                <path d="M199.941,8L204.941,8L206.941,10L206.941,26L204.941,28L200,28" style="fill:none;stroke:white;stroke-width:3px;stroke-linecap:butt;"/>
                <g transform="matrix(1,0,0,1,13,0)">
                    <path d="M200,8L205,8L207,10L207,26L205,28L200,28" style="fill:none;stroke:white;stroke-width:3px;stroke-linecap:butt;"/>
                </g>
                <path d="M201,15L219.941,15L219.941,21L201,21" style="fill:none;stroke:white;stroke-width:3px;stroke-linecap:butt;"/>
            </g>
        </g>
    </g>
</svg>
