<?xml version="1.0" encoding="UTF-8" standalone="no"?>
<!DOCTYPE svg PUBLIC "-//W3C//DTD SVG 1.1//EN" "http://www.w3.org/Graphics/SVG/1.1/DTD/svg11.dtd">
<svg width="100%" height="100%" viewBox="0 0 32 32" version="1.1" xmlns="http://www.w3.org/2000/svg" xmlns:xlink="http://www.w3.org/1999/xlink" xml:space="preserve" xmlns:serif="http://www.serif.com/" style="fill-rule:evenodd;clip-rule:evenodd;stroke-miterlimit:1.5;">
    <g id="Combat-satellite" serif:id="Combat satellite" transform="matrix(1,0,0,1,-226,-2)">
        <g id="Hull">
            <circle id="Body" cx="242" cy="18" r="3" style="fill:url(#_Radial1);"/>
            <g id="Panel-aft-port" serif:id="Panel aft port">
                <path id="Panel" d="M238,13L238,12L240.076,9.924L241,9.924" style="fill:none;stroke:rgb(128,128,128);stroke-width:1px;"/>
                <g id="Beam" transform="matrix(-1,0,0,1,478,0)">
                    <path d="M238,12L240,10" style="fill:none;stroke:white;stroke-width:1px;"/>
                </g>
            </g>
            <g id="Panel-fore-port" serif:id="Panel fore port">
                <g id="Panel1" serif:id="Panel" transform="matrix(-1,0,0,1,484,0)">
                    <path d="M238,13L238,12L240.076,9.924L241,9.924" style="fill:none;stroke:rgb(128,128,128);stroke-width:1px;"/>
                </g>
                <g id="Beam1" serif:id="Beam" transform="matrix(1,0,0,1,6,0)">
                    <path d="M238,12L240,10" style="fill:none;stroke:white;stroke-width:1px;"/>
                </g>
            </g>
            <g id="Panel-aft-starboard" serif:id="Panel aft starboard">
                <g id="Panel2" serif:id="Panel" transform="matrix(1,0,0,-1,0,36)">
                    <path d="M238,13L238,12L240.076,9.924L241,9.924" style="fill:none;stroke:rgb(128,128,128);stroke-width:1px;"/>
                </g>
                <g id="Beam2" serif:id="Beam" transform="matrix(-1,0,0,-1,478,36.0764)">
                    <path d="M238,12.076L240,10.076" style="fill:none;stroke:white;stroke-width:1px;"/>
                </g>
            </g>
            <g id="Panel-fore-starboard" serif:id="Panel fore starboard">
                <g id="Panel3" serif:id="Panel" transform="matrix(-1,0,0,-1,484,36)">
                    <path d="M238,13L238,12L240.076,9.924L241,9.924" style="fill:none;stroke:rgb(128,128,128);stroke-width:1px;"/>
                </g>
                <g id="Beam3" serif:id="Beam" transform="matrix(1,0,0,-1,6,36.0764)">
                    <path d="M238,12.076L240,10.076" style="fill:none;stroke:white;stroke-width:1px;"/>
                </g>
            </g>
        </g>
    </g>
    <defs>
        <radialGradient id="_Radial1" cx="0" cy="0" r="1" gradientUnits="userSpaceOnUse" gradientTransform="matrix(3,0,0,3,242,18)"><stop offset="0" style="stop-color:white;stop-opacity:1"/><stop offset="0.42" style="stop-color:white;stop-opacity:1"/><stop offset="1" style="stop-color:black;stop-opacity:0"/></radialGradient>
    </defs>
</svg>
