<?xml version="1.0" encoding="UTF-8" standalone="no"?>
<!DOCTYPE svg PUBLIC "-//W3C//DTD SVG 1.1//EN" "http://www.w3.org/Graphics/SVG/1.1/DTD/svg11.dtd">
<svg width="100%" height="100%" viewBox="0 0 36 36" version="1.1" xmlns="http://www.w3.org/2000/svg" xmlns:xlink="http://www.w3.org/1999/xlink" xml:space="preserve" xmlns:serif="http://www.serif.com/" style="fill-rule:evenodd;clip-rule:evenodd;stroke-linecap:square;stroke-miterlimit:1.5;">
    <g id="Cruiser" transform="matrix(1,0,0,1,-256.287,-0.295836)">
        <g id="Ship">
            <g id="Nose" transform="matrix(1,0,0,1,258,2)">
                <path d="M24.004,13L26,13L31,16L26,19L24,19" style="fill:none;stroke:rgb(128,128,128);stroke-width:3px;"/>
            </g>
            <g id="Exhaust" transform="matrix(1,0,0,1,257.991,2)">
                <path id="Exhaust-starboard" serif:id="Exhaust starboard" d="M1,1L5.231,5L6.009,7" style="fill:none;stroke:rgb(128,128,128);stroke-width:3px;"/>
                <path id="Exhaust-port" serif:id="Exhaust port" d="M1,31L5.245,27L6.013,25" style="fill:none;stroke:rgb(128,128,128);stroke-width:3px;"/>
            </g>
            <g id="Hull">
                <g transform="matrix(1.16596,0,0,1,141.579,0)">
                    <path d="M105,27L111,9" style="fill:none;stroke:white;stroke-width:2.76px;stroke-linecap:butt;"/>
                    <path d="M105,9L111,27" style="fill:none;stroke:white;stroke-width:2.76px;stroke-linecap:butt;"/>
                </g>
                <g transform="matrix(0.944444,0,0,1,14.7778,0)">
                    <path d="M266,21L284,21" style="fill:none;stroke:white;stroke-width:3.08px;stroke-linecap:butt;"/>
                </g>
                <g transform="matrix(0.944444,0,0,1,14.7778,-6)">
                    <path d="M266,21L284,21" style="fill:none;stroke:white;stroke-width:3.08px;stroke-linecap:butt;"/>
                </g>
            </g>
        </g>
    </g>
</svg>
