<?xml version="1.0" encoding="UTF-8" standalone="no"?>
<!DOCTYPE svg PUBLIC "-//W3C//DTD SVG 1.1//EN" "http://www.w3.org/Graphics/SVG/1.1/DTD/svg11.dtd">
<svg width="100%" height="100%" viewBox="0 0 37 38" version="1.1" xmlns="http://www.w3.org/2000/svg" xmlns:xlink="http://www.w3.org/1999/xlink" xml:space="preserve" xmlns:serif="http://www.serif.com/" style="fill-rule:evenodd;clip-rule:evenodd;stroke-linecap:square;stroke-miterlimit:1.5;">
    <g id="Dreadnought" transform="matrix(1,0,0,1,-288.296,0.704164)">
        <g id="Ship">
            <g id="Nose" transform="matrix(1,0,0,1,290.5,2)">
                <path d="M26,13L31,16L26,19" style="fill:none;stroke:rgb(255,255,255);stroke-opacity:0.5;stroke-width:3px;"/>
            </g>
            <g id="Exhaust" transform="matrix(1,0,0,1,290,2)">
                <path id="Exhaust-starboard" serif:id="Exhaust starboard" d="M1,1L6.009,6.009" style="fill:none;stroke:rgb(255,255,255);stroke-opacity:0.5;stroke-width:3px;"/>
                <path id="Exhaust-port" serif:id="Exhaust port" d="M1,31L6.009,26" style="fill:none;stroke:rgb(255,255,255);stroke-opacity:0.5;stroke-width:3px;"/>
            </g>
            <g id="Hull">
                <path id="Angled-c-beam-fore" serif:id="Angled c beam fore" d="M322,8.5L316.495,8.5L315.505,9.5L315.505,26.508L316.489,27.492L322,27.492" style="fill:none;stroke:white;stroke-width:3px;stroke-linecap:butt;"/>
                <path id="Beam-center-starboard" serif:id="Beam center starboard" d="M316.009,21L296.009,21" style="fill:none;stroke:white;stroke-width:3px;stroke-linecap:butt;"/>
                <path id="Beam-center-port" serif:id="Beam center port" d="M296.009,15L316,15" style="fill:none;stroke:white;stroke-width:3px;stroke-linecap:butt;"/>
                <g id="Beam-starbaord" serif:id="Beam starbaord" transform="matrix(1,0,0,1,0,20)">
                    <path d="M309,7.5L296.009,7.5" style="fill:none;stroke:white;stroke-width:3px;stroke-linecap:butt;"/>
                </g>
                <path id="Beam-port" serif:id="Beam port" d="M309,8.5L296.009,8.5" style="fill:none;stroke:white;stroke-width:3px;stroke-linecap:butt;"/>
                <g id="Narrow-beam-starboard" serif:id="Narrow beam starboard" transform="matrix(1,0,0,1,0,0.25)">
                    <path d="M309,33L296.009,33" style="fill:none;stroke:white;stroke-width:1.5px;stroke-linecap:butt;"/>
                </g>
                <g id="Narrow-beam-port" serif:id="Narrow beam port" transform="matrix(1,0,0,1,0,-30.25)">
                    <path d="M309,33L296.009,33" style="fill:none;stroke:white;stroke-width:1.5px;stroke-linecap:butt;"/>
                </g>
                <g id="Beam-aft" serif:id="Beam aft" transform="matrix(1.06667,0,0,1.06667,-19.2432,-1.2)">
                    <path d="M296.009,3L296.009,33" style="fill:none;stroke:white;stroke-width:2.81px;stroke-linecap:butt;"/>
                </g>
                <g id="Reinforced-hull" serif:id="Reinforced hull">
                    <path d="M309,21L303.038,15.038" style="fill:none;stroke:white;stroke-width:3px;stroke-linecap:butt;"/>
                    <path d="M309,15.038L303.017,21.022" style="fill:none;stroke:white;stroke-width:3px;stroke-linecap:butt;"/>
                </g>
            </g>
        </g>
    </g>
</svg>
