<?xml version="1.0" encoding="UTF-8" standalone="no"?>
<svg
   width="100%"
   height="100%"
   viewBox="0 0 36 36"
   version="1.1"
   xml:space="preserve"
   style="fill-rule:evenodd;clip-rule:evenodd;stroke-linecap:square;stroke-miterlimit:1.5;"
   id="svg1"
   sodipodi:docname="exuari_frigate_1.svg"
   inkscape:export-filename="exuari_frigate_1.png"
   inkscape:export-xdpi="358.85001"
   inkscape:export-ydpi="358.85001"
   inkscape:version="1.4.3 (0d15f75042, 2025-12-25)"
   xmlns:inkscape="http://www.inkscape.org/namespaces/inkscape"
   xmlns:sodipodi="http://sodipodi.sourceforge.net/DTD/sodipodi-0.dtd"
   xmlns="http://www.w3.org/2000/svg"
   xmlns:svg="http://www.w3.org/2000/svg"
   xmlns:serif="http://www.serif.com/"><defs
   id="defs1" /><sodipodi:namedview
   id="namedview1"
   pagecolor="#000000"
   bordercolor="#000000"
   borderopacity="0.25"
   inkscape:showpageshadow="2"
   inkscape:pageopacity="0.0"
   inkscape:pagecheckerboard="0"
   inkscape:deskcolor="#d1d1d1"
   inkscape:zoom="6.5911885"
   inkscape:cx="76.010571"
   inkscape:cy="49.004819"
   inkscape:window-width="1805"
   inkscape:window-height="1107"
   inkscape:window-x="0"
   inkscape:window-y="0"
   inkscape:window-maximized="1"
   inkscape:current-layer="svg1" />
    <g
   id="Exuari-frigate"
   serif:id="Exuari frigate"
   transform="matrix(1,0,0,1,-512.296,-0.295836)">
        <g
   id="Ship">
            <g
   id="Nose"
   transform="matrix(1,0,0,1,514,2)">
                <path
   d="M25,13L27,13L31,16L27,19L25,19"
   style="fill:none;stroke:rgb(128,128,128);stroke-width:3px;"
   id="path1" />
            </g>
            <g
   id="Exhaust"
   transform="matrix(1,0,0,1,514.495,1)">
                <path
   id="Exhaust-starboard"
   serif:id="Exhaust starboard"
   d="M0.505,2L5.505,7"
   style="fill:none;stroke:rgb(128,128,128);stroke-width:3px;" />
                <path
   id="Exhaust-port"
   serif:id="Exhaust port"
   d="M0.505,32L5.505,27"
   style="fill:none;stroke:rgb(128,128,128);stroke-width:3px;" />
            </g>
            <g
   id="Hull">
                <path
   id="Beam-aft"
   serif:id="Beam aft"
   d="M520.5,15L520.5,24M520.5,15L520.5,12"
   style="fill:none;stroke:white;stroke-width:3px;stroke-linecap:butt;" />
                <path
   id="Beam-starboard"
   serif:id="Beam starboard"
   d="M520.5,21L539,21"
   style="fill:none;stroke:white;stroke-width:3px;stroke-linecap:butt;" />
                <path
   id="Beam-port"
   serif:id="Beam port"
   d="M539,15L520.5,15"
   style="fill:none;stroke:white;stroke-width:3px;stroke-linecap:butt;" />
                <path
   id="Hull-center"
   serif:id="Hull center"
   d="m 527,11 v 14 c 0,0 2,-1.64e-4 3,-1.64e-4 1,0 3,1.64e-4 3,1.64e-4 V 11 c 0,0 -2,-1.64e-4 -3,-1.64e-4 -1,0 -3,1.64e-4 -3,1.64e-4 z"
   style="fill:none;stroke:#ffffff;stroke-width:3px;stroke-linecap:butt"
   sodipodi:nodetypes="ccsccsc" />
            </g>
        </g>
    </g>
</svg>
