<?xml version="1.0" encoding="UTF-8" standalone="no"?>
<!DOCTYPE svg PUBLIC "-//W3C//DTD SVG 1.1//EN" "http://www.w3.org/Graphics/SVG/1.1/DTD/svg11.dtd">
<svg width="100%" height="100%" viewBox="0 0 114 111" version="1.1" xmlns="http://www.w3.org/2000/svg" xmlns:xlink="http://www.w3.org/1999/xlink" xml:space="preserve" xmlns:serif="http://www.serif.com/" style="fill-rule:evenodd;clip-rule:evenodd;stroke-miterlimit:1.5;">
    <g transform="matrix(3.125,0,0,3.125,0,0)">
        <g id="Ship" transform="matrix(1,0,0,1,-512.296,-0.295836)">
            <g id="Ktlitan-worker" serif:id="Ktlitan worker">
                <g id="Ship1" serif:id="Ship">
                    <g id="Nose" transform="matrix(1,0,0,1,514,2)">
                        <path d="M26,13L27,13L31,16L27,19L26,19" style="fill:none;stroke:rgb(128,128,128);stroke-width:3px;"/>
                    </g>
                    <g id="Exhaust" transform="matrix(1,0,0,1,514.495,1)">
                        <path id="Exhaust-starboard" serif:id="Exhaust starboard" d="M0.505,2L5.505,7" style="fill:none;stroke:rgb(128,128,128);stroke-width:3px;stroke-linecap:square;"/>
                        <path id="Exhaust-port" serif:id="Exhaust port" d="M0.505,32L5.505,27" style="fill:none;stroke:rgb(128,128,128);stroke-width:3px;stroke-linecap:square;"/>
                    </g>
                    <g id="Hull">
                        <g id="Winglet-starboard" serif:id="Winglet starboard" transform="matrix(1,0,0,-1,-288,36.5096)">
                            <path d="M834,9.51L816,14.51L814.971,13.48L814.971,10.51L816.461,9.019L821,9.019" style="fill:none;stroke:white;stroke-width:3px;"/>
                        </g>
                        <g id="Reinforced-hull" serif:id="Reinforced hull">
                            <g transform="matrix(1,0,0,1,-320,0)">
                                <path d="M841,15L859,21L860,21" style="fill:none;stroke:white;stroke-width:3px;"/>
                            </g>
                            <g transform="matrix(1,0,0,1,-320,0)">
                                <path d="M841,21L859,15L860,15" style="fill:none;stroke:white;stroke-width:3px;"/>
                            </g>
                        </g>
                        <g id="Winglet-port" serif:id="Winglet port" transform="matrix(1,0,0,1,-288,0)">
                            <path d="M834,9L816,14L814.971,12.971L814.971,10L816.461,8.51L821,8.51" style="fill:none;stroke:white;stroke-width:3px;"/>
                        </g>
                        <g id="Beam-aft" serif:id="Beam aft" transform="matrix(1,0,0,1.14286,-320,-2)">
                            <path d="M848,14L847,17L847,18L848,21" style="fill:none;stroke:white;stroke-width:2.79px;"/>
                        </g>
                    </g>
                </g>
            </g>
        </g>
    </g>
</svg>
