<?xml version="1.0" encoding="UTF-8" standalone="no"?>
<!DOCTYPE svg PUBLIC "-//W3C//DTD SVG 1.1//EN" "http://www.w3.org/Graphics/SVG/1.1/DTD/svg11.dtd">
<svg width="100%" height="100%" viewBox="0 0 114 111" version="1.1" xmlns="http://www.w3.org/2000/svg" xmlns:xlink="http://www.w3.org/1999/xlink" xml:space="preserve" xmlns:serif="http://www.serif.com/" style="fill-rule:evenodd;clip-rule:evenodd;stroke-linecap:square;stroke-miterlimit:1.5;">
    <g transform="matrix(3.125,0,0,3.125,0,0)">
        <g id="Ship" transform="matrix(1,0,0,1,-512.296,-0.295836)">
            <g id="Ktlitan-feeder" serif:id="Ktlitan feeder">
                <g id="Ship1" serif:id="Ship">
                    <g id="Nose" transform="matrix(1,0,0,1,514,2)">
                        <path d="M27,13L31,16L27,19" style="fill:none;stroke:rgb(255,255,255);stroke-opacity:0.5;stroke-width:3px;"/>
                    </g>
                    <g id="Exhaust" transform="matrix(1,0,0,1,514.495,1)">
                        <path id="Exhaust-starboard" serif:id="Exhaust starboard" d="M0.505,2L5.505,7" style="fill:none;stroke:rgb(255,255,255);stroke-opacity:0.5;stroke-width:3px;"/>
                        <path id="Exhaust-port" serif:id="Exhaust port" d="M0.505,32L5.505,27" style="fill:none;stroke:rgb(255,255,255);stroke-opacity:0.5;stroke-width:3px;"/>
                    </g>
                    <g id="Hull">
                        <g id="Starboard">
                            <g id="Winglet-aft-starboard" serif:id="Winglet aft starboard" transform="matrix(1,0,0,-1,-192,36)">
                                <path d="M719,8.5L719,15" style="fill:none;stroke:white;stroke-width:3px;stroke-linecap:butt;"/>
                            </g>
                            <g id="Hull-starboard" serif:id="Hull starboard" transform="matrix(1,0,0,-1,-160,36)">
                                <path d="M680.5,14.989L693,14.989L700,8.5L706,8.5" style="fill:none;stroke:white;stroke-width:3px;stroke-linecap:butt;"/>
                            </g>
                        </g>
                        <g id="Port">
                            <g id="Winglet-aft-port" serif:id="Winglet aft port" transform="matrix(1,0,0,1,-192,0)">
                                <path d="M719,8.5L719,15" style="fill:none;stroke:white;stroke-width:3px;stroke-linecap:butt;"/>
                            </g>
                            <g id="Hull-port" serif:id="Hull port" transform="matrix(1,0,0,1,-160,0)">
                                <path d="M680.5,14.989L693,14.989L700,8.5L706,8.5" style="fill:none;stroke:white;stroke-width:3px;stroke-linecap:butt;"/>
                            </g>
                        </g>
                    </g>
                </g>
            </g>
        </g>
    </g>
</svg>
