<?xml version="1.0" encoding="UTF-8" standalone="no"?>
<!DOCTYPE svg PUBLIC "-//W3C//DTD SVG 1.1//EN" "http://www.w3.org/Graphics/SVG/1.1/DTD/svg11.dtd">
<svg width="100%" height="100%" viewBox="0 0 111 111" version="1.1" xmlns="http://www.w3.org/2000/svg" xmlns:xlink="http://www.w3.org/1999/xlink" xml:space="preserve" xmlns:serif="http://www.serif.com/" style="fill-rule:evenodd;clip-rule:evenodd;stroke-linecap:square;stroke-miterlimit:1.5;">
    <g transform="matrix(3.125,0,0,3.125,0,0)">
        <g id="Ship" transform="matrix(1,0,0,1,-512.296,-0.295836)">
            <g id="Ktlitan-scout" serif:id="Ktlitan scout">
                <g id="Ship1" serif:id="Ship">
                    <g id="Nose" transform="matrix(1,0,0,1,514,2)">
                        <path d="M27,13L31,16L27,19" style="fill:none;stroke:rgb(255,255,255);stroke-opacity:0.5;stroke-width:3px;"/>
                    </g>
                    <g id="Exhaust" transform="matrix(1,0,0,1,514.495,1)">
                        <path id="Exhaust-starboard" serif:id="Exhaust starboard" d="M0.505,2L5.505,7" style="fill:none;stroke:rgb(255,255,255);stroke-opacity:0.5;stroke-width:3px;"/>
                        <path id="Exhaust-port" serif:id="Exhaust port" d="M0.505,32L5.505,27" style="fill:none;stroke:rgb(255,255,255);stroke-opacity:0.5;stroke-width:3px;"/>
                    </g>
                    <g id="Hull">
                        <g id="Aft-assembly" serif:id="Aft assembly" transform="matrix(1,0,0,1,-288,0)">
                            <path d="M821.029,8.5L808.5,8.5L815,15L809,18L815,21L808.5,27.5L821,27.5" style="fill:none;stroke:white;stroke-width:3px;stroke-linecap:butt;"/>
                        </g>
                        <g id="Central-hull" serif:id="Central hull" transform="matrix(1,0,0,1,-288,0)">
                            <path d="M815,21L827,21L827.949,20.051L827.949,16L826.968,15.02L815,15.02" style="fill:none;stroke:white;stroke-width:3px;stroke-linecap:butt;"/>
                        </g>
                        <g id="Winglet-starboard" serif:id="Winglet starboard" transform="matrix(1,0,0,1,-288,0)">
                            <path d="M827,27L821.013,21.013" style="fill:none;stroke:white;stroke-width:3px;stroke-linecap:butt;"/>
                        </g>
                        <g id="Winglet-port" serif:id="Winglet port" transform="matrix(1,0,0,1,-288,0)">
                            <path d="M827,9L820.973,15.027" style="fill:none;stroke:white;stroke-width:3px;stroke-linecap:butt;"/>
                        </g>
                    </g>
                </g>
            </g>
        </g>
    </g>
</svg>
