<?xml version="1.0" encoding="UTF-8" standalone="no"?>
<!DOCTYPE svg PUBLIC "-//W3C//DTD SVG 1.1//EN" "http://www.w3.org/Graphics/SVG/1.1/DTD/svg11.dtd">
<svg width="100%" height="100%" viewBox="0 0 108 92" version="1.1" xmlns="http://www.w3.org/2000/svg" xmlns:xlink="http://www.w3.org/1999/xlink" xml:space="preserve" xmlns:serif="http://www.serif.com/" style="fill-rule:evenodd;clip-rule:evenodd;stroke-linecap:square;stroke-miterlimit:1.5;">
    <g transform="matrix(3.125,0,0,3.125,0,0)">
        <g id="Ship" transform="matrix(1,0,0,1,-512.296,-3.29584)">
            <g id="Laser">
                <g id="Ship1" serif:id="Ship">
                    <g id="Nose" transform="matrix(1,0,0,1,514,2)">
                        <path d="M27,13L31,16L27,19" style="fill:none;stroke:rgb(128,128,128);stroke-width:2px;"/>
                    </g>
                    <g id="Exhaust" transform="matrix(1,0,0,1,514.495,1)">
                        <g id="Exhaust-starboard" serif:id="Exhaust starboard" transform="matrix(1,0,0,1,0,3)">
                            <path d="M0.505,2L5.005,6.5" style="fill:none;stroke:rgb(128,128,128);stroke-width:3px;"/>
                        </g>
                        <g id="Exhaust-port" serif:id="Exhaust port" transform="matrix(1,0,0,1,0,-2.5)">
                            <path d="M0.505,31.5L5.005,27" style="fill:none;stroke:rgb(128,128,128);stroke-width:3px;"/>
                        </g>
                    </g>
                    <g transform="matrix(1,0,0,1,-384,0)">
                        <g id="Hull">
                            <path d="M927,16L906,16C906,16 905.553,17.333 905.553,18C905.553,18.667 906,20 906,20L927,20L927,21C927,21 926.284,20.826 926,21C925.597,21.248 925.244,22.321 924.579,22.487C923.913,22.654 922.51,22.243 922,22C921.674,21.845 921.518,21.031 921.518,21.031C921.518,21.031 918.355,20.779 917.529,21.031C916.957,21.205 917.133,22.367 916.561,22.54C915.732,22.792 913.313,22.464 912.552,22.54C912.314,22.564 912.233,22.946 912,23C911.669,23.077 910.564,23 910.564,23C910.231,23.167 910.374,23.918 910,24C909.239,24.167 907.193,24.596 906,24C904.667,23.333 902.259,20 902.259,20C902.259,20 902,19.667 902,18C902,16.333 902.263,16 902.263,16C902.263,16 904.711,12.667 906,12C907.184,11.388 909.239,11.832 910,12C910.377,12.083 910.233,12.841 910.566,13.01C910.566,13.01 911.67,12.916 912,13.01C912.252,13.081 912.288,13.541 912.548,13.573C913.306,13.667 915.712,13.336 916.547,13.573C917.108,13.732 917.002,14.835 917.562,14.996C918.385,15.233 921.481,14.996 921.481,14.996C921.481,14.996 921.665,14.167 922,14C922.501,13.749 923.82,13.326 924.487,13.492C925.154,13.659 925.581,14.749 926,15C926.286,15.171 927,15 927,15L927,16Z" style="fill:white;"/>
                        </g>
                    </g>
                </g>
            </g>
        </g>
    </g>
</svg>
