<?xml version="1.0" encoding="UTF-8" standalone="no"?>
<svg
   width="128"
   height="128"
   viewBox="0 0 111.30435 111.30435"
   version="1.1"
   xml:space="preserve"
   style="clip-rule:evenodd;fill-rule:evenodd;stroke-linecap:square;stroke-miterlimit:1.5"
   id="svg5"
   sodipodi:docname="laser.svg"
   inkscape:version="1.4.4 (dcaf3e7, 2026-05-05)"
   xmlns:inkscape="http://www.inkscape.org/namespaces/inkscape"
   xmlns:sodipodi="http://sodipodi.sourceforge.net/DTD/sodipodi-0.dtd"
   xmlns="http://www.w3.org/2000/svg"
   xmlns:svg="http://www.w3.org/2000/svg"
   xmlns:serif="http://www.serif.com/"><defs
   id="defs5">
        
    
            
        
                    
                    
                    
                
                        
                    
                            
                        </defs><sodipodi:namedview
   id="namedview5"
   pagecolor="#000000"
   bordercolor="#000000"
   borderopacity="0.25"
   inkscape:showpageshadow="2"
   inkscape:pageopacity="0.0"
   inkscape:pagecheckerboard="0"
   inkscape:deskcolor="#d1d1d1"
   showgrid="false"
   inkscape:zoom="4"
   inkscape:cx="7.25"
   inkscape:cy="82.125"
   inkscape:window-width="1693"
   inkscape:window-height="1186"
   inkscape:window-x="0"
   inkscape:window-y="25"
   inkscape:window-maximized="0"
   inkscape:current-layer="Laser" />
    <g
   id="Laser"
   transform="matrix(3.3086604,0,0,3.3086604,-1695.1205,-11.01186)">
                
            <path
   d="m 538.60983,16.994572 6.30755,3.153778 -6.30755,3.153775"
   style="clip-rule:evenodd;fill:none;fill-rule:evenodd;stroke:#ffffff;stroke-width:2.62815;stroke-linecap:butt;stroke-miterlimit:1.5;stroke-dasharray:none;stroke-opacity:0.66"
   id="path1"
   sodipodi:nodetypes="ccc"
   inkscape:label="Nose" /><g
   id="Exhaust"
   transform="matrix(0.98240984,0,0,0.98240984,513.42994,4.4297888)"
   style="clip-rule:evenodd;fill-rule:evenodd;stroke:#ffffff;stroke-linecap:square;stroke-miterlimit:1.5;stroke-opacity:0.66">
                <path
   id="Exhaust-starboard"
   serif:id="Exhaust starboard"
   d="M -0.05124008,-0.05123786 6.3692548,6.369257"
   style="fill:none;stroke:#ffffff;stroke-width:2.67521;stroke-linecap:butt;stroke-dasharray:none;stroke-opacity:0.66"
   sodipodi:nodetypes="cc" />
                <path
   id="Exhaust-port"
   serif:id="Exhaust port"
   d="M -0.05124008,32.051237 6.3692548,25.630742"
   style="fill:none;stroke:#ffffff;stroke-width:2.67521;stroke-linecap:butt;stroke-dasharray:none;stroke-opacity:0.66"
   sodipodi:nodetypes="cc" />
            </g><path
   id="path5"
   style="fill:#ffffff;fill-opacity:1;stroke-width:0.262815"
   d="M 522.84094 13.840788 C 520.09021 13.853128 518.11881 17.278144 518.11027 20.148346 C 518.11881 23.018548 520.09021 26.443563 522.84094 26.455903 C 525.0016 26.465599 527.22023 25.799847 529.1485 24.879014 C 531.04282 23.974398 533.51638 23.307324 535.45605 23.302124 C 537.31303 23.297156 537.78147 24.879002 540.18672 24.879014 C 541.42836 24.853137 541.62432 23.048616 543.15673 22.51368 L 522.01348 22.51368 C 522.01348 22.51368 521.66715 21.106647 521.63415 20.148346 C 521.66715 19.190045 522.01348 17.783012 522.01348 17.783012 L 543.15673 17.783012 C 541.62432 17.248076 541.42836 15.443555 540.18672 15.417678 C 537.78147 15.41769 537.31303 16.999535 535.45605 16.994567 C 533.51638 16.989367 531.04282 16.322294 529.1485 15.417678 C 527.22023 14.496845 525.0016 13.831092 522.84094 13.840788 z "
   inkscape:label="Hull" /></g>
</svg>
