<?xml version="1.0" encoding="UTF-8" standalone="no"?>
<!DOCTYPE svg PUBLIC "-//W3C//DTD SVG 1.1//EN" "http://www.w3.org/Graphics/SVG/1.1/DTD/svg11.dtd">
<svg width="100%" height="100%" viewBox="0 0 350 350" version="1.1" xmlns="http://www.w3.org/2000/svg" xmlns:xlink="http://www.w3.org/1999/xlink" xml:space="preserve" xmlns:serif="http://www.serif.com/" style="fill-rule:evenodd;clip-rule:evenodd;stroke-linejoin:round;stroke-miterlimit:2;">
    <g id="Probe" transform="matrix(4.17821,0,0,4.17821,-627.256,-627.219)">
        <path id="Circle" d="M192.009,152.111C214.025,152.111 231.899,169.985 231.899,192.001C231.899,214.016 214.025,231.89 192.009,231.89C169.994,231.89 152.12,214.016 152.12,192.001C152.12,169.985 169.994,152.111 192.009,152.111ZM192.009,166.073C177.699,166.073 166.081,177.691 166.081,192.001C166.081,206.311 177.699,217.929 192.009,217.929C206.32,217.929 217.938,206.311 217.938,192.001C217.938,177.691 206.32,166.073 192.009,166.073Z"/>
        <g id="Dot" transform="matrix(1.22794,0,0,1.22794,-43.5379,-44.0613)">
            <circle cx="191.815" cy="192.241" r="6.253"/>
        </g>
    </g>
</svg>
