<?xml version="1.0" encoding="UTF-8" standalone="no"?>
<!DOCTYPE svg PUBLIC "-//W3C//DTD SVG 1.1//EN" "http://www.w3.org/Graphics/SVG/1.1/DTD/svg11.dtd">
<svg width="100%" height="100%" viewBox="0 0 100 100" version="1.1" xmlns="http://www.w3.org/2000/svg" xmlns:xlink="http://www.w3.org/1999/xlink" xml:space="preserve" xmlns:serif="http://www.serif.com/" style="fill-rule:evenodd;clip-rule:evenodd;stroke-linejoin:round;stroke-miterlimit:2;">
    <g transform="matrix(3.125,0,0,3.125,0,0)">
        <g id="Hull" transform="matrix(1,0,0,1,-226,-2)">
            <g id="Probe">
                <g id="Hull1" serif:id="Hull">
                    <g id="Body" transform="matrix(2.66667,0,0,2.66667,-403.333,-30)">
                        <circle cx="242" cy="18" r="3" style="fill:url(#_Radial1);"/>
                    </g>
                    <g transform="matrix(1,0,0,1,-795,0)">
                        <path d="M1037,2C1045.83,2 1053,9.169 1053,18C1053,26.831 1045.83,34 1037,34C1028.17,34 1021,26.831 1021,18C1021,9.169 1028.17,2 1037,2ZM1037,9.5C1032.31,9.5 1028.5,13.309 1028.5,18C1028.5,22.691 1032.31,26.5 1037,26.5C1041.69,26.5 1045.5,22.691 1045.5,18C1045.5,13.309 1041.69,9.5 1037,9.5Z" style="fill:url(#_Radial2);"/>
                    </g>
                </g>
            </g>
        </g>
    </g>
    <defs>
        <radialGradient id="_Radial1" cx="0" cy="0" r="1" gradientUnits="userSpaceOnUse" gradientTransform="matrix(3,0,0,3,242,18)"><stop offset="0" style="stop-color:white;stop-opacity:1"/><stop offset="0.12" style="stop-color:white;stop-opacity:1"/><stop offset="0.58" style="stop-color:rgb(69,69,69);stop-opacity:0.27"/><stop offset="1" style="stop-color:black;stop-opacity:0"/></radialGradient>
        <radialGradient id="_Radial2" cx="0" cy="0" r="1" gradientUnits="userSpaceOnUse" gradientTransform="matrix(16,0,0,16,1037,18)"><stop offset="0" style="stop-color:black;stop-opacity:0"/><stop offset="0.58" style="stop-color:black;stop-opacity:0"/><stop offset="0.7" style="stop-color:rgb(189,189,189);stop-opacity:0.74"/><stop offset="0.81" style="stop-color:white;stop-opacity:1"/><stop offset="0.9" style="stop-color:rgb(181,181,181);stop-opacity:0.71"/><stop offset="1" style="stop-color:black;stop-opacity:0"/></radialGradient>
    </defs>
</svg>
