<?xml version="1.0" encoding="UTF-8" standalone="no"?>
<!DOCTYPE svg PUBLIC "-//W3C//DTD SVG 1.1//EN" "http://www.w3.org/Graphics/SVG/1.1/DTD/svg11.dtd">
<svg width="100%" height="100%" viewBox="0 0 77 77" version="1.1" xmlns="http://www.w3.org/2000/svg" xmlns:xlink="http://www.w3.org/1999/xlink" xml:space="preserve" xmlns:serif="http://www.serif.com/" style="fill-rule:evenodd;clip-rule:evenodd;stroke-miterlimit:1.5;">
    <g transform="matrix(3.125,0,0,3.125,0,0)">
        <g id="Small-station" serif:id="Small station" transform="matrix(1,0,0,1,-1088.8,-5.79584)">
            <g id="Hull">
                <path id="Port" d="M1091.5,15L1096,15L1098,13L1098,8.5" style="fill:none;stroke:white;stroke-width:3px;"/>
                <g id="Port1" serif:id="Port" transform="matrix(6.12323e-17,-1,1,6.12323e-17,1083,1119)">
                    <path d="M1091.5,15L1096,15L1098,13L1098,8.5" style="fill:none;stroke:white;stroke-width:3px;"/>
                </g>
                <g id="Port2" serif:id="Port" transform="matrix(-1,0,0,1,2202,0)">
                    <path d="M1091.5,15L1096,15L1098,13L1098,8.5" style="fill:none;stroke:white;stroke-width:3px;"/>
                </g>
                <g id="Port3" serif:id="Port" transform="matrix(-6.12323e-17,-1,-1,6.12323e-17,1119,1119)">
                    <path d="M1091.5,15L1096,15L1098,13L1098,8.5" style="fill:none;stroke:white;stroke-width:3px;"/>
                </g>
            </g>
        </g>
    </g>
</svg>
