<?xml version="1.0" encoding="UTF-8" standalone="no"?>
<!DOCTYPE svg PUBLIC "-//W3C//DTD SVG 1.1//EN" "http://www.w3.org/Graphics/SVG/1.1/DTD/svg11.dtd">
<svg width="100%" height="100%" viewBox="0 0 111 117" version="1.1" xmlns="http://www.w3.org/2000/svg" xmlns:xlink="http://www.w3.org/1999/xlink" xml:space="preserve" xmlns:serif="http://www.serif.com/" style="fill-rule:evenodd;clip-rule:evenodd;stroke-linecap:square;stroke-miterlimit:1.5;">
    <g transform="matrix(3.125,0,0,3.125,0,0)">
        <g id="Ship" transform="matrix(1,0,0,1,-64.2958,1.70416)">
            <g id="Striker">
                <g id="Ship1" serif:id="Ship">
                    <g id="Nose" transform="matrix(1,0,0,1,66,1)">
                        <path d="M25,13L26,13L31,16L26,19L25,19" style="fill:none;stroke:rgb(128,128,128);stroke-width:3px;"/>
                    </g>
                    <g id="Exhaust" transform="matrix(1,0,0,1,66,1)">
                        <path id="Exhaust-starboard" serif:id="Exhaust starboard" d="M1,1L6,6" style="fill:none;stroke:rgb(128,128,128);stroke-width:3px;"/>
                        <path id="Exhaust-port" serif:id="Exhaust port" d="M1,31L6,26" style="fill:none;stroke:rgb(128,128,128);stroke-width:3px;"/>
                    </g>
                    <g id="Hull">
                        <g id="Starboard-wing" serif:id="Starboard wing" transform="matrix(1,0,0,-1,0,34)">
                            <g id="Winglet-aft-starboard" serif:id="Winglet aft starboard" transform="matrix(1,0,0,1,32,-1)">
                                <path d="M46.5,8.5L41.028,13.972L42.056,14.988" style="fill:none;stroke:white;stroke-width:3px;stroke-linecap:butt;"/>
                            </g>
                            <g id="Hull-starboard" serif:id="Hull starboard" transform="matrix(1,0,0,1,32,-1)">
                                <path d="M42,13L40,15L59,15" style="fill:none;stroke:white;stroke-width:3px;stroke-linecap:butt;"/>
                            </g>
                            <g id="Wing-fore-starboard" serif:id="Wing fore starboard" transform="matrix(1,0,0,1,32,-1)">
                                <path d="M60,2L47,15" style="fill:none;stroke:white;stroke-width:3px;stroke-linecap:butt;"/>
                            </g>
                        </g>
                        <g id="Port-wing" serif:id="Port wing">
                            <g id="Winglet-aft-port" serif:id="Winglet aft port" transform="matrix(1,0,0,1,32,-1)">
                                <path d="M46.5,8.5L41.028,13.972L42.056,14.988" style="fill:none;stroke:white;stroke-width:3px;stroke-linecap:butt;"/>
                            </g>
                            <g id="Hull-port" serif:id="Hull port" transform="matrix(1,0,0,1,32,-1)">
                                <path d="M42,13L40,15L59,15" style="fill:none;stroke:white;stroke-width:3px;stroke-linecap:butt;"/>
                            </g>
                            <g id="Wing-fore-port" serif:id="Wing fore port" transform="matrix(1,0,0,1,32,-1)">
                                <path d="M60,2L47,15" style="fill:none;stroke:white;stroke-width:3px;stroke-linecap:butt;"/>
                            </g>
                        </g>
                    </g>
                </g>
            </g>
        </g>
    </g>
</svg>
