<?xml version="1.0" encoding="UTF-8" standalone="no"?>
<!DOCTYPE svg PUBLIC "-//W3C//DTD SVG 1.1//EN" "http://www.w3.org/Graphics/SVG/1.1/DTD/svg11.dtd">
<svg width="100%" height="100%" viewBox="0 0 111 111" version="1.1" xmlns="http://www.w3.org/2000/svg" xmlns:xlink="http://www.w3.org/1999/xlink" xml:space="preserve" xmlns:serif="http://www.serif.com/" style="fill-rule:evenodd;clip-rule:evenodd;stroke-linecap:square;stroke-miterlimit:1.5;">
    <g transform="matrix(3.125,0,0,3.125,0,0)">
        <g id="Ship" transform="matrix(1,0,0,1,1.70416,1.70416)">
            <g id="Transport">
                <g id="Ship1" serif:id="Ship">
                    <path id="Nose" d="M25,13L26,13L31,16L26,19L25,19" style="fill:none;stroke:rgb(255,255,255);stroke-opacity:0.5;stroke-width:3px;"/>
                    <g id="Exhaust">
                        <path id="Exhaust-starboard" serif:id="Exhaust starboard" d="M1,1L5.296,5.296" style="fill:none;stroke:rgb(255,255,255);stroke-opacity:0.5;stroke-width:3px;"/>
                        <path id="Exhaust-port" serif:id="Exhaust port" d="M1,31L5.296,26.704" style="fill:none;stroke:rgb(255,255,255);stroke-opacity:0.5;stroke-width:3px;"/>
                    </g>
                    <g id="Hull">
                        <g id="Beam-aft" serif:id="Beam aft" transform="matrix(1,0,0,1,0.490785,-3.55271e-15)">
                            <path d="M6.009,6L6.009,26" style="fill:none;stroke:white;stroke-width:3px;"/>
                        </g>
                        <g id="Beam-central" serif:id="Beam central" transform="matrix(1,0,0,1,-1149,-2)">
                            <path d="M1162,8.5L1162,27.5" style="fill:none;stroke:white;stroke-width:3px;stroke-linecap:butt;"/>
                        </g>
                        <g id="Beam-fore" serif:id="Beam fore" transform="matrix(1,0,0,1,-1143,-2)">
                            <path d="M1162,8.5L1162,27.5" style="fill:none;stroke:white;stroke-width:3px;stroke-linecap:butt;"/>
                        </g>
                        <g id="Beam-starboard" serif:id="Beam starboard" transform="matrix(1,0,0,1,-1149,-2)">
                            <path d="M1155.5,21L1174,21" style="fill:none;stroke:white;stroke-width:3px;stroke-linecap:butt;"/>
                        </g>
                        <g id="Beam-port" serif:id="Beam port" transform="matrix(1,0,0,1,-1149,-2)">
                            <path d="M1155.5,15L1174,15" style="fill:none;stroke:white;stroke-width:3px;stroke-linecap:butt;"/>
                        </g>
                    </g>
                </g>
            </g>
        </g>
    </g>
</svg>
