<?xml version="1.0" encoding="UTF-8" standalone="no"?>
<!DOCTYPE svg PUBLIC "-//W3C//DTD SVG 1.1//EN" "http://www.w3.org/Graphics/SVG/1.1/DTD/svg11.dtd">
<svg xmlns:inkscape="http://www.inkscape.org/namespaces/inkscape" xmlns:sodipodi="http://sodipodi.sourceforge.net/DTD/sodipodi-0.dtd" fill="white" width="100%" height="100%" viewBox="-52.5 -52.5 455 455" version="1.1" xmlns="http://www.w3.org/2000/svg" xmlns:xlink="http://www.w3.org/1999/xlink" xml:space="preserve" xmlns:serif="http://www.serif.com/" style="fill-rule:evenodd;clip-rule:evenodd;stroke-linecap:round;stroke-linejoin:round;stroke-miterlimit:1.5;">
   <sodipodi:namedview pagecolor="#000000" />
<g id="Coolant" transform="matrix(4.64562,0,0,4.64562,-1311.26,-122.564)">
        <g>
            <path d="M319.928,30.042L319.928,98.063" style="fill:none;stroke:white;stroke-width:3.4px;"/>
            <g transform="matrix(0.866025,0.5,-0.5,0.866025,69.934,-144.457)">
                <path d="M310.137,37.186L298.588,37.186" style="fill:none;stroke:white;stroke-width:3.4px;"/>
            </g>
            <g transform="matrix(-0.866025,0.5,0.5,0.866025,569.922,-144.457)">
                <path d="M310.137,37.186L298.588,37.186" style="fill:none;stroke:white;stroke-width:3.4px;"/>
            </g>
            <g transform="matrix(0.866025,-0.5,-0.5,-0.866025,69.934,272.294)">
                <path d="M310.137,37.186L298.588,37.186" style="fill:none;stroke:white;stroke-width:3.4px;"/>
            </g>
            <g transform="matrix(-0.866025,-0.5,0.5,-0.866025,569.922,272.294)">
                <path d="M310.137,37.186L298.588,37.186" style="fill:none;stroke:white;stroke-width:3.4px;"/>
            </g>
        </g>
        <g transform="matrix(0.5,0.866025,-0.866025,0.5,215.435,-245.04)">
            <path d="M319.928,30.042L319.928,98.063" style="fill:none;stroke:white;stroke-width:3.4px;"/>
            <g transform="matrix(0.866025,0.5,-0.5,0.866025,69.934,-144.457)">
                <path d="M310.137,37.186L298.588,37.186" style="fill:none;stroke:white;stroke-width:3.4px;"/>
            </g>
            <g transform="matrix(-0.866025,0.5,0.5,0.866025,569.922,-144.457)">
                <path d="M310.137,37.186L298.588,37.186" style="fill:none;stroke:white;stroke-width:3.4px;"/>
            </g>
            <g transform="matrix(0.866025,-0.5,-0.5,-0.866025,69.934,272.294)">
                <path d="M310.137,37.186L298.588,37.186" style="fill:none;stroke:white;stroke-width:3.4px;"/>
            </g>
            <g transform="matrix(-0.866025,-0.5,0.5,-0.866025,569.922,272.294)">
                <path d="M310.137,37.186L298.588,37.186" style="fill:none;stroke:white;stroke-width:3.4px;"/>
            </g>
        </g>
        <g transform="matrix(-0.5,0.866025,-0.866025,-0.5,535.363,-180.987)">
            <path d="M319.928,30.042L319.928,98.063" style="fill:none;stroke:white;stroke-width:3.4px;"/>
            <g transform="matrix(0.866025,0.5,-0.5,0.866025,69.934,-144.457)">
                <path d="M310.137,37.186L298.588,37.186" style="fill:none;stroke:white;stroke-width:3.4px;"/>
            </g>
            <g transform="matrix(-0.866025,0.5,0.5,0.866025,569.922,-144.457)">
                <path d="M310.137,37.186L298.588,37.186" style="fill:none;stroke:white;stroke-width:3.4px;"/>
            </g>
            <g transform="matrix(0.866025,-0.5,-0.5,-0.866025,69.934,272.294)">
                <path d="M310.137,37.186L298.588,37.186" style="fill:none;stroke:white;stroke-width:3.4px;"/>
            </g>
            <g transform="matrix(-0.866025,-0.5,0.5,-0.866025,569.922,272.294)">
                <path d="M310.137,37.186L298.588,37.186" style="fill:none;stroke:white;stroke-width:3.4px;"/>
            </g>
        </g>
    </g>
</svg>
