<?xml version="1.0" encoding="UTF-8" standalone="no"?>
<!DOCTYPE svg PUBLIC "-//W3C//DTD SVG 1.1//EN" "http://www.w3.org/Graphics/SVG/1.1/DTD/svg11.dtd">
<svg width="100%" height="100%" viewBox="0 0 350 350" version="1.1" xmlns="http://www.w3.org/2000/svg" xmlns:xlink="http://www.w3.org/1999/xlink" xml:space="preserve" xmlns:serif="http://www.serif.com/" style="fill-rule:evenodd;clip-rule:evenodd;stroke-linejoin:round;stroke-miterlimit:2;">
    <g id="Docking-left" serif:id="Docking left" transform="matrix(4.2958,0,0,4.2958,-1750.22,-101.22)">
        <g id="Port" transform="matrix(1.95651,0,0,1.95651,232.21,-951.29)">
            <path d="M110.377,499.252C106.368,499.252 102.765,500.317 99.57,502.448L105.96,507.053C107.464,506.552 108.936,506.301 110.377,506.301C113.886,506.301 116.893,507.554 119.4,510.06C121.906,512.566 123.159,515.574 123.159,519.082C123.159,522.591 121.906,525.599 119.4,528.105C116.893,530.611 113.886,531.864 110.377,531.864C108.936,531.864 107.464,531.613 105.96,531.112L99.57,535.717C102.765,537.847 106.368,538.913 110.377,538.913C115.891,538.913 120.574,536.986 124.428,533.133C128.281,529.279 130.208,524.596 130.208,519.082C130.208,513.569 128.281,508.885 124.428,505.032C120.574,501.179 115.891,499.252 110.377,499.252Z"/>
        </g>
        <g id="Ship" transform="matrix(1.95651,0,0,1.95651,232.21,-951.29)">
            <path d="M90.547,502.448L96.28,519.082L90.547,535.717L113.573,519.082L90.547,502.448Z"/>
        </g>
    </g>
</svg>
