<?xml version="1.0" encoding="UTF-8" standalone="no"?>
<!DOCTYPE svg PUBLIC "-//W3C//DTD SVG 1.1//EN" "http://www.w3.org/Graphics/SVG/1.1/DTD/svg11.dtd">
<svg xmlns:inkscape="http://www.inkscape.org/namespaces/inkscape" xmlns:sodipodi="http://sodipodi.sourceforge.net/DTD/sodipodi-0.dtd" fill="white" width="100%" height="100%" viewBox="-52.5 -52.5 455 455" version="1.1" xmlns="http://www.w3.org/2000/svg" xmlns:xlink="http://www.w3.org/1999/xlink" xml:space="preserve" xmlns:serif="http://www.serif.com/" style="fill-rule:evenodd;clip-rule:evenodd;stroke-linejoin:round;stroke-miterlimit:2;">
   <sodipodi:namedview pagecolor="#000000" />
<g id="Heat" transform="matrix(4.16667,0,0,4.16667,-625.002,-2758.34)">
        <g id="Thermometer" transform="matrix(1.81499,0,0,1.81499,-357.673,-238.214)">
            <path d="M310.746,520.304C313.378,522.748 314.694,525.724 314.694,529.232C314.694,532.553 313.535,535.373 311.216,537.691C308.898,540.009 306.11,541.168 302.852,541.168C299.594,541.168 296.806,540.009 294.488,537.691C292.169,535.373 291.01,532.553 291.01,529.232C291.01,525.661 292.326,522.716 294.958,520.398L294.958,504.891C294.958,502.761 295.725,500.928 297.26,499.393C298.795,497.858 300.659,497.091 302.852,497.091C305.045,497.091 306.909,497.858 308.444,499.393C309.979,500.928 310.746,502.761 310.746,504.891L310.746,520.304ZM308.303,534.777C309.869,533.211 310.653,531.363 310.653,529.232C310.653,526.914 309.775,524.972 308.021,523.406L306.611,522.184L306.611,504.891C306.611,503.826 306.235,502.933 305.484,502.213C304.732,501.492 303.854,501.132 302.852,501.132C301.85,501.132 300.972,501.492 300.221,502.213C299.469,502.933 299.093,503.826 299.093,504.891L299.093,522.184L297.683,523.406C295.929,524.972 295.052,526.914 295.052,529.232C295.052,531.363 295.819,533.195 297.354,534.73C298.889,536.265 300.722,537.033 302.852,537.033C304.982,537.033 306.799,536.281 308.303,534.777Z"/>
        </g>
        <g id="Mercury" transform="matrix(1.81499,0,0,1.81499,-357.673,-238.214)">
            <path d="M304.262,524.533L304.262,508.463L301.442,508.463L301.442,524.533C300.44,524.847 299.61,525.426 298.952,526.272C298.294,527.118 297.965,528.105 297.965,529.232C297.965,530.611 298.435,531.77 299.375,532.71C300.315,533.65 301.474,534.12 302.852,534.12C304.23,534.12 305.39,533.65 306.329,532.71C307.269,531.77 307.739,530.611 307.739,529.232C307.739,528.105 307.41,527.118 306.752,526.272C306.094,525.426 305.264,524.847 304.262,524.533Z"/>
        </g>
    </g>
</svg>
