<?xml version="1.0" encoding="UTF-8" standalone="no"?>
<!DOCTYPE svg PUBLIC "-//W3C//DTD SVG 1.1//EN" "http://www.w3.org/Graphics/SVG/1.1/DTD/svg11.dtd">
<svg width="100%" height="100%" viewBox="0 0 350 350" version="1.1" xmlns="http://www.w3.org/2000/svg" xmlns:xlink="http://www.w3.org/1999/xlink" xml:space="preserve" xmlns:serif="http://www.serif.com/" style="fill-rule:evenodd;clip-rule:evenodd;stroke-linejoin:round;stroke-miterlimit:2;">
    <g id="No-power" serif:id="No power" transform="matrix(4.16667,0,0,4.16667,-3825.03,-2225)">
        <g id="Power" transform="matrix(0.998052,0,0,0.998052,801.82,57.9289)">
            <path d="M172.593,515.135L163.195,517.109L163.195,495.399L144.399,523.03L153.797,521.056L153.797,542.766L172.593,515.135Z" style="fill-rule:nonzero;"/>
        </g>
        <g id="No-circle" serif:id="No circle" transform="matrix(1.92586,0,0,1.92586,376.757,-524.675)">
            <path d="M317.513,556.863C313.503,552.791 308.616,550.754 302.852,550.754C297.088,550.754 292.185,552.775 288.144,556.816C284.103,560.857 282.082,565.76 282.082,571.524C282.082,577.288 284.103,582.191 288.144,586.232C292.185,590.274 297.088,592.294 302.852,592.294C308.616,592.294 313.519,590.274 317.56,586.232C321.601,582.191 323.622,577.288 323.622,571.524C323.622,565.76 321.586,560.873 317.513,556.863ZM315.07,579.795L311.216,576.035L308.021,580.641L311.122,583.742C308.616,585.434 305.859,586.279 302.852,586.279C298.779,586.279 295.302,584.838 292.42,581.956C289.538,579.074 288.097,575.597 288.097,571.524C288.097,568.454 288.974,565.697 290.728,563.254L294.676,567.201L297.777,562.596L294.582,559.401C297.025,557.646 299.782,556.769 302.852,556.769C306.925,556.769 310.402,558.21 313.284,561.092C316.166,563.974 317.607,567.452 317.607,571.524C317.607,574.532 316.761,577.288 315.07,579.795Z" style="fill-rule:nonzero;"/>
        </g>
        <g id="No-circle1" serif:id="No circle" transform="matrix(1.92586,0,0,1.92586,376.757,-524.675)">
            <path d="M317.513,556.863C313.503,552.791 308.616,550.754 302.852,550.754C297.088,550.754 292.185,552.775 288.144,556.816C284.103,560.857 282.082,565.76 282.082,571.524C282.082,577.288 284.103,582.191 288.144,586.232C292.185,590.274 297.088,592.294 302.852,592.294C308.616,592.294 313.519,590.274 317.56,586.232C321.601,582.191 323.622,577.288 323.622,571.524C323.622,565.76 321.586,560.873 317.513,556.863ZM315.07,579.795L311.216,576.035L308.021,580.641L311.122,583.742C308.616,585.434 305.859,586.279 302.852,586.279C298.779,586.279 295.302,584.838 292.42,581.956C289.538,579.074 288.097,575.597 288.097,571.524C288.097,568.454 288.974,565.697 290.728,563.254L294.676,567.201L297.777,562.596L294.582,559.401C297.025,557.646 299.782,556.769 302.852,556.769C306.925,556.769 310.402,558.21 313.284,561.092C316.166,563.974 317.607,567.452 317.607,571.524C317.607,574.532 316.761,577.288 315.07,579.795Z" style="fill-rule:nonzero;"/>
        </g>
    </g>
</svg>
