<?xml version="1.0" encoding="UTF-8" standalone="no"?>
<!DOCTYPE svg PUBLIC "-//W3C//DTD SVG 1.1//EN" "http://www.w3.org/Graphics/SVG/1.1/DTD/svg11.dtd">
<svg xmlns:inkscape="http://www.inkscape.org/namespaces/inkscape" xmlns:sodipodi="http://sodipodi.sourceforge.net/DTD/sodipodi-0.dtd" fill="white" width="100%" height="100%" viewBox="-52.5 -52.5 455 455" version="1.1" xmlns="http://www.w3.org/2000/svg" xmlns:xlink="http://www.w3.org/1999/xlink" xml:space="preserve" xmlns:serif="http://www.serif.com/" style="fill-rule:evenodd;clip-rule:evenodd;stroke-linejoin:round;stroke-miterlimit:2;">
   <sodipodi:namedview pagecolor="#000000" />
<g id="Reactor" transform="matrix(4.16667,0,0,4.16667,-3825.04,-3292.13)">
        <g id="Power" transform="matrix(1.68895,0,0,1.68895,692.316,-44.5927)">
            <path d="M172.593,515.135L163.195,517.109L163.195,495.399L144.399,523.03L153.797,521.056L153.797,542.766L172.593,515.135Z" style="fill-rule:nonzero;"/>
        </g>
        <path d="M947.626,855.247L939.38,868.951C933.401,865.244 928.677,860.371 925.209,854.332C921.741,848.293 920.007,841.686 920.007,834.511L920.007,832.717L934.63,833.387L932.643,836.309C931.61,837.827 931.603,839.82 932.625,841.345C933.646,842.87 935.492,843.622 937.288,843.244L944.964,841.632C945.626,843.064 946.514,844.37 947.626,845.551L947.626,855.247ZM947.818,814.001L939.559,800.072C945.897,796.365 952.713,794.511 960.007,794.511C960.362,794.511 960.715,794.516 961.068,794.524L947.818,814.001ZM972.389,796.437C975.159,797.335 977.848,798.546 980.456,800.072L972.389,813.677L972.389,796.437ZM983.223,834.229L1000.01,833.973L1000.01,834.511C1000.01,841.925 998.154,848.741 994.447,854.96C990.74,861.178 985.777,866.021 979.559,869.489L970.415,853.058L983.223,834.229Z"/>
    </g>
</svg>
