<?xml version="1.0" encoding="UTF-8" standalone="no"?>
<!DOCTYPE svg PUBLIC "-//W3C//DTD SVG 1.1//EN" "http://www.w3.org/Graphics/SVG/1.1/DTD/svg11.dtd">
<svg width="100%" height="100%" viewBox="0 0 350 350" version="1.1" xmlns="http://www.w3.org/2000/svg" xmlns:xlink="http://www.w3.org/1999/xlink" xml:space="preserve" xmlns:serif="http://www.serif.com/" style="fill-rule:evenodd;clip-rule:evenodd;stroke-linejoin:round;stroke-miterlimit:2;">
    <g id="Beam" transform="matrix(4.27502,0,0,4.27502,-1188.51,-2835.07)">
        <path id="Blast" d="M302.79,694.499L298,682L311.831,687.907C312.25,688.145 312.756,688.176 313.201,687.992C313.647,687.807 313.983,687.428 314.111,686.963L319.877,666.09L325.643,686.963C325.771,687.428 326.107,687.807 326.553,687.992C326.998,688.176 327.504,688.145 327.923,687.907L342,682L336.078,696.062C335.84,696.481 335.809,696.987 335.993,697.432C336.178,697.878 336.557,698.214 337.022,698.342L357.895,704L337.022,709.874C336.557,710.002 336.178,710.338 335.993,710.784C335.809,711.229 335.84,711.735 336.078,712.154L342.013,726L327.923,720.309C327.504,720.071 326.998,720.04 326.553,720.224C326.107,720.409 325.771,720.789 325.643,721.253L319.877,742.126L314.111,721.253C313.983,720.789 313.647,720.409 313.201,720.224C312.756,720.04 312.25,720.071 311.831,720.309L298,726L302.914,713.499L311.878,713.499C314.064,715.37 316.901,716.5 320,716.5C326.899,716.5 332.5,710.899 332.5,704C332.5,697.101 326.899,691.5 320,691.5C316.902,691.5 314.065,692.63 311.88,694.499L302.79,694.499Z"/>
        <g id="Dot" transform="matrix(1.01678,0,0,1.01678,-4.88893,-11.8135)">
            <circle cx="319.527" cy="704" r="7.573"/>
        </g>
        <g id="Beam1" serif:id="Beam" transform="matrix(1.09264,0,0,1.09264,-25.9386,-65.2171)">
            <rect x="280" y="700.338" width="34.285" height="7.322"/>
        </g>
    </g>
</svg>
