<?xml version="1.0" encoding="UTF-8" standalone="no"?>
<!DOCTYPE svg PUBLIC "-//W3C//DTD SVG 1.1//EN" "http://www.w3.org/Graphics/SVG/1.1/DTD/svg11.dtd">
<svg width="100%" height="100%" viewBox="0 0 350 350" version="1.1" xmlns="http://www.w3.org/2000/svg" xmlns:xlink="http://www.w3.org/1999/xlink" xml:space="preserve" xmlns:serif="http://www.serif.com/" style="fill-rule:evenodd;clip-rule:evenodd;stroke-linejoin:round;stroke-miterlimit:2;">
    <g id="Jump-drive" serif:id="Jump drive" transform="matrix(4.16667,0,0,4.16667,-2759.65,-2758.62)">
        <path d="M696.25,684.54C716.784,682.448 700.41,700.98 715.75,716.18C725.28,724.68 727.59,722.68 744,722C738.38,744.9 708.415,750.245 695.25,737.08C679.171,721.001 675.652,686.639 696.25,684.54Z" style="fill-rule:nonzero;"/>
        <path d="M719.708,677.79C723.884,690.545 718.937,687.632 711.631,683.274C704.844,679.225 694.534,676.577 685.731,681.825C678.569,686.095 677.007,695.25 674.249,703.513C670.375,715.121 668.226,719.483 666.53,714.04C661.129,696.708 667.705,679.008 680.574,670.997C693.573,662.904 717.472,670.961 719.708,677.79Z" style="fill-rule:nonzero;"/>
        <path d="M712.06,664C718.854,664.369 745.725,682.607 741,706.95C735.06,723.32 703.575,701.584 717.506,695.676C731.774,689.625 722.923,670.594 711.238,667.187C706.574,665.672 709.096,663.839 712.06,664Z" style="fill-rule:nonzero;"/>
    </g>
</svg>
