<?xml version="1.0" encoding="UTF-8" standalone="no"?>
<!DOCTYPE svg PUBLIC "-//W3C//DTD SVG 1.1//EN" "http://www.w3.org/Graphics/SVG/1.1/DTD/svg11.dtd">
<svg width="100%" height="100%" viewBox="0 0 350 350" version="1.1" xmlns="http://www.w3.org/2000/svg" xmlns:xlink="http://www.w3.org/1999/xlink" xml:space="preserve" xmlns:serif="http://www.serif.com/" style="fill-rule:evenodd;clip-rule:evenodd;stroke-linejoin:round;stroke-miterlimit:2;">
    <g id="Maneuvering" transform="matrix(4.16667,0,0,4.16667,-624.95,-2226.88)">
        <g id="Outer" transform="matrix(1.00277,0,0,1.00277,-0.553639,383.919)">
            <path d="M192.009,152.111C214.025,152.111 231.899,169.985 231.899,192.001C231.899,214.016 214.025,231.89 192.009,231.89C169.994,231.89 152.12,214.016 152.12,192.001C152.12,169.985 169.994,152.111 192.009,152.111ZM192.009,161.086C174.947,161.086 161.095,174.939 161.095,192.001C161.095,209.063 174.947,222.915 192.009,222.915C209.072,222.915 222.924,209.063 222.924,192.001C222.924,174.939 209.072,161.086 192.009,161.086Z"/>
        </g>
        <g id="Wheel" transform="matrix(1.04184,0,0,1.05067,-672.985,-165.247)">
            <path d="M839.614,741.817L821.687,741.817C824.107,737.992 825.507,735.651 825.507,730.806C825.507,717.076 814.266,705.929 800.42,705.929C795.906,705.929 797.68,707.113 794.02,709.185L797.454,690.761C797.454,690.761 801.98,694.277 803.916,694.396C813.762,695.002 846.36,694.996 856.525,694.396C858.427,694.284 862.985,690.8 862.985,690.8L866.155,708.33C862.894,706.791 864.731,705.929 860.882,705.929C847.035,705.929 835.794,717.076 835.794,730.806C835.794,735.651 837.194,737.992 839.614,741.817ZM830.233,698.6C826.154,698.6 822.842,701.884 822.842,705.929C822.842,709.974 826.154,713.258 830.233,713.258C834.312,713.258 837.624,709.974 837.624,705.929C837.624,701.884 834.312,698.6 830.233,698.6Z"/>
        </g>
    </g>
</svg>
