<?xml version="1.0" encoding="UTF-8" standalone="no"?>
<!-- Created with Inkscape (http://www.inkscape.org/) -->

<svg
   width="89.960251mm"
   height="88.194504mm"
   viewBox="-13.49403765 -13.2291756 116.9483263 114.6528552"
   version="1.1"
   id="svg1"
   inkscape:version="1.4.3 (0d15f75042, 2025-12-25)"
   sodipodi:docname="axis_2.svg"
   xmlns:inkscape="http://www.inkscape.org/namespaces/inkscape"
   xmlns:sodipodi="http://sodipodi.sourceforge.net/DTD/sodipodi-0.dtd"
   xmlns="http://www.w3.org/2000/svg"
   xmlns:svg="http://www.w3.org/2000/svg"
   xmlns:serif="http://www.serif.com/">
  <sodipodi:namedview
     id="namedview1"
     pagecolor="#000000"
     bordercolor="#ffffff"
     borderopacity="0.25"
     inkscape:showpageshadow="2"
     inkscape:pageopacity="0.0"
     inkscape:pagecheckerboard="0"
     inkscape:deskcolor="#d1d1d1"
     inkscape:document-units="mm"
     inkscape:zoom="0.89887065"
     inkscape:cx="170.76984"
     inkscape:cy="166.31981"
     inkscape:window-width="1024"
     inkscape:window-height="1186"
     inkscape:window-x="0"
     inkscape:window-y="0"
     inkscape:window-maximized="0"
     inkscape:current-layer="layer1" />
  <defs
     id="defs1" />
  <g
     inkscape:label="Layer 1"
     inkscape:groupmode="layer"
     id="layer1"
     transform="translate(-60.060415,-104.51042)">
    <g
       id="Axis-2"
       serif:id="Axis 2"
       transform="matrix(0.73236943,0,0,0.73236943,-35.147611,98.917689)"
       style="clip-rule:evenodd;fill-rule:evenodd;stroke-linejoin:round;stroke-miterlimit:1.5;fill:#ffffff;fill-opacity:1">
      <path
         d="m 217.25,16.39 c 8.63,2.27 16.2,6.06 22.19,10.61 0.21,-0.04 4.64,-5.49 4.76,-5.51 0.99,-0.2 4.2,9.83 4.9,11.76 4.97,13.65 7.44,12.63 -8.85,9.37 -1.01,-0.2 -10.86,-1.82 -10.86,-1.82 -2.4,-1.29 4.4,-4.73 3.31,-7.05 -0.5,-1.06 -13.84,-8.48 -16.09,-7.75 -2.69,4.05 -9.88,4.96 -15.36,5.78 l -1,95.97 -4.37,0.31 0.72,-99.31 c 3.89,-3.32 18.91,0.23 16.4,-10.35 -1.94,-8.15 -42.82,-8.79 -44.5,0.55 -2.04,11.33 16.91,6.66 18,9.85 l -0.25,98.95 -4.24,0.31 -0.26,-95.81 c -5.54,-1.03 -12.96,-1.56 -16.4,-5.4 -5.5,1.77 -12.02,5.39 -15.42,8.9 0.49,1.08 5.05,6.03 4.07,7.01 -2.11,-0.01 -23.16,2.91 -24,2.24 0.54,-2.45 9.3,-21.68 9.3,-21.68 2.09,-1.54 3.61,4.93 5.5,4.68 5.65,-3.93 10.89,-9.37 18.81,-11 l 4.95,-5.4 c 11.82,-5.61 43.68,-6.3 48.69,4.79 z"
         style="fill-rule:nonzero;fill:#ffffff;fill-opacity:1"
         id="path10" />
    </g>
  </g>
</svg>
