<?xml version="1.0" encoding="UTF-8" standalone="no"?>
<!-- Created with Inkscape (http://www.inkscape.org/) -->

<svg
   width="91.338631mm"
   height="88.194565mm"
   viewBox="-13.70079465 -13.22918475 118.7402203 114.6529345"
   version="1.1"
   id="svg1"
   inkscape:version="1.4.3 (0d15f75042, 2025-12-25)"
   sodipodi:docname="axis_1.svg"
   xmlns:inkscape="http://www.inkscape.org/namespaces/inkscape"
   xmlns:sodipodi="http://sodipodi.sourceforge.net/DTD/sodipodi-0.dtd"
   xmlns="http://www.w3.org/2000/svg"
   xmlns:svg="http://www.w3.org/2000/svg"
   xmlns:serif="http://www.serif.com/">
  <sodipodi:namedview
     id="namedview1"
     pagecolor="#000000"
     bordercolor="#ffffff"
     borderopacity="0.25"
     inkscape:showpageshadow="2"
     inkscape:pageopacity="0.0"
     inkscape:pagecheckerboard="0"
     inkscape:deskcolor="#d1d1d1"
     inkscape:document-units="mm"
     inkscape:zoom="0.89887065"
     inkscape:cx="172.99486"
     inkscape:cy="166.31981"
     inkscape:window-width="1024"
     inkscape:window-height="1186"
     inkscape:window-x="0"
     inkscape:window-y="0"
     inkscape:window-maximized="0"
     inkscape:current-layer="layer1" />
  <defs
     id="defs1" />
  <g
     inkscape:label="Layer 1"
     inkscape:groupmode="layer"
     id="layer1"
     transform="translate(-59.531249,-104.51042)">
    <g
       id="Axis-1"
       serif:id="Axis 1"
       transform="matrix(0.74325153,0,0,0.74325153,58.086424,97.499285)"
       style="clip-rule:evenodd;fill-rule:evenodd;stroke-linejoin:round;stroke-miterlimit:1.5;fill:#ffffff;fill-opacity:1">
      <path
         d="m 52.17,14 c 22.36,0.66 44.41,4.48 59.26,13.01 0.26,-0.06 4.63,-5.49 4.77,-5.52 0.99,-0.2 4.2,9.83 4.9,11.76 4.97,13.65 7.44,12.63 -8.85,9.37 -1.01,-0.2 -10.86,-1.82 -10.86,-1.82 -2.31,-1.24 4.14,-4.93 3.61,-6.78 C 92.09,26.58 72.78,24.37 54.07,23 51.02,27.1 46.11,30.03 41.5,32.57 51.66,64.37 63.64,95.48 73.5,128 H 69.56 C 57.98,96.22 47.06,62.56 35.91,30.6 39.36,27.43 52.53,24.5 48.98,17.11 44.15,7.07 9.26,22.56 6.98,27.67 c -3.37,16.51 17,4.05 19.48,7.09 L 59,127.4 c 0.16,1.32 -4.64,0.35 -4.64,0.35 L 23.54,39.83 22.3,39.07 C 12.35,42.67 1.05,42.23 2,27.96 3.6,18.35 44.32,1.21 52.17,14 Z"
         style="fill-rule:nonzero;fill:#ffffff;fill-opacity:1"
         id="path11" />
    </g>
  </g>
</svg>
