<?xml version="1.0" encoding="UTF-8" standalone="no"?>
<!-- Created with Inkscape (http://www.inkscape.org/) -->

<svg
   width="88.195mm"
   height="88.195mm"
   viewBox="0 0 88.195001 88.194999"
   version="1.1"
   id="svg1"
   inkscape:version="1.4.4 (dcaf3e7, 2026-05-05)"
   sodipodi:docname="discrete.svg"
   xmlns:inkscape="http://www.inkscape.org/namespaces/inkscape"
   xmlns:sodipodi="http://sodipodi.sourceforge.net/DTD/sodipodi-0.dtd"
   xmlns="http://www.w3.org/2000/svg"
   xmlns:svg="http://www.w3.org/2000/svg">
  <sodipodi:namedview
     id="namedview1"
     pagecolor="#ffffff"
     bordercolor="#000000"
     borderopacity="0.25"
     inkscape:showpageshadow="2"
     inkscape:pageopacity="0.0"
     inkscape:pagecheckerboard="0"
     inkscape:deskcolor="#d1d1d1"
     inkscape:document-units="mm"
     inkscape:zoom="0.89887065"
     inkscape:cx="137.95088"
     inkscape:cy="166.31981"
     inkscape:window-width="1024"
     inkscape:window-height="1186"
     inkscape:window-x="0"
     inkscape:window-y="25"
     inkscape:window-maximized="0"
     inkscape:current-layer="layer1" />
  <defs
     id="defs1" />
  <g
     inkscape:label="Layer 1"
     inkscape:groupmode="layer"
     id="layer1"
     transform="translate(-68.527094,-104.51042)">
    <g
       id="Discrete"
       transform="matrix(1.1093657,0,0,1.1093657,-952.44653,77.330956)"
       style="clip-rule:evenodd;fill-rule:evenodd;stroke-linejoin:round;stroke-miterlimit:1.5">
            <path
   d="m 991.5,24.5 c -1.89,8.3 -3.93,16.72 -6.55,24.15 -1.62,-0.97 -3,-4.28 -4.84,-3.4 C 979.84,45.38 965,59.95 965,59.95 V 61 c 6.47,-0.77 13.17,-2.02 17.9,-4.07 3.75,15.14 7.3,30.86 10.1,47.07 h -66 v -1.8 c 0,0 7.41,-35.83 8.08,-38.45 2.68,-10.41 -0.13,-5.81 13.17,-3.76 0.66,0.1 8.63,1.51 9.25,1.01 -1.8,-4.45 -24.75,-23.41 -24,-25.77 0.03,-0.1 8.27,-8.23 8.27,-8.23 2.95,-0.29 17.62,18.67 20,18 0.12,-0.03 9.23,-9.27 9.23,-9.27 0.23,-2.31 -4.7,-4.03 -3.13,-5.26 7.68,-1.86 15.27,-4.53 23.63,-5.97 z M 939.56,62 c -0.47,0.25 -7.73,34.14 -8.06,38.5 h 56.44 c 0,0 0.61,-0.95 0.62,-1 0.03,-0.15 -7.27,-35.4 -8.49,-37.6 -10.88,3.72 -29.68,3.34 -40.51,0.1 z M 986.5,29.5 c -0.32,1.39 -2.76,10.9 -2.91,11.07 -1.34,1.57 -1.85,-0.83 -3.05,-0.72 -1.73,0.17 -17.98,18.62 -19.79,18.11 l -22.5,-21.89 c 1.11,-0.8 2.94,-4.05 4.65,-3.57 1.84,0.52 17.11,18.37 18.53,17.75 L 976.5,35.32 c -5.66,-4.19 6.92,-4.46 10,-5.82 z"
   style="fill-rule:nonzero"
   id="path8" />

        </g>
  </g>
</svg>
