<?xml version="1.0" encoding="UTF-8" standalone="no"?>
<!-- Created with Inkscape (http://www.inkscape.org/) -->

<svg
   width="88.195mm"
   height="88.195mm"
   viewBox="-13.22925015 -13.22924985 114.6535013 114.6534987"
   version="1.1"
   id="svg1"
   inkscape:version="1.4.3 (0d15f75042, 2025-12-25)"
   sodipodi:docname="key_stepped.svg"
   xmlns:inkscape="http://www.inkscape.org/namespaces/inkscape"
   xmlns:sodipodi="http://sodipodi.sourceforge.net/DTD/sodipodi-0.dtd"
   xmlns="http://www.w3.org/2000/svg"
   xmlns:svg="http://www.w3.org/2000/svg">
  <sodipodi:namedview
     id="namedview1"
     pagecolor="#000000"
     bordercolor="#ffffff"
     borderopacity="0.25"
     inkscape:showpageshadow="2"
     inkscape:pageopacity="0.0"
     inkscape:pagecheckerboard="0"
     inkscape:deskcolor="#d1d1d1"
     inkscape:document-units="mm"
     inkscape:zoom="1.8160882"
     inkscape:cx="340.29184"
     inkscape:cy="132.70281"
     inkscape:window-width="1805"
     inkscape:window-height="1107"
     inkscape:window-x="0"
     inkscape:window-y="0"
     inkscape:window-maximized="1"
     inkscape:current-layer="Discrete" />
  <defs
     id="defs1" />
  <g
     inkscape:label="Layer 1"
     inkscape:groupmode="layer"
     id="layer1"
     transform="translate(-68.527094,-104.51042)">
    <g
       id="Discrete"
       transform="matrix(1.1093657,0,0,1.1093657,-952.44653,77.330956)"
       style="clip-rule:evenodd;fill-rule:evenodd;stroke-linejoin:round;stroke-miterlimit:1.5;fill:#ffffff;fill-opacity:1">
      <path
         d="M 970.50606,60.662259 C 976.13059,59.806971 978.17,58.98 982.9,56.93 986.65,72.07 990.2,87.79 993,104 h -66 c 2.83119,-15.45851 6.60408,-33.070038 9.97673,-46.890283 0,0 3.51576,2.033655 10.80024,3.274478 6.6977,1.140873 16.86898,1.169176 22.72909,0.278064 z M 939.56,62 c -0.47,0.25 -8.06,38.5 -8.06,38.5 h 56.44 c 0,0 -7.5374,-38.00023 -7.87,-38.6 -10.88,3.72 -29.68,3.34 -40.51,0.1 z"
         style="fill:#ffffff;fill-opacity:1;fill-rule:nonzero"
         id="path8"
         sodipodi:nodetypes="sccccssccccc" />
      <path
         style="display:inline;fill:#ffffff;fill-opacity:1;stroke:none;stroke-width:3.81599"
         d="m 945.66745,30.13713 15.1918,15.275169 9.91465,-10.497801 -4.41575,-4.415749 24.42519,-5.964273 -6.94888,24.157246 -3.96253,-3.962534 -19.01268,19.220911 -25.31469,-25.106453 z"
         id="path1"
         sodipodi:nodetypes="cccccccccc" />
    </g>
  </g>
</svg>
