<?xml version="1.0" encoding="UTF-8" standalone="no"?>
<!-- Created with Inkscape (http://www.inkscape.org/) -->

<svg
   width="88.227997mm"
   height="88.227585mm"
   viewBox="-13.2342 -13.23413775 114.6964 114.6958605"
   version="1.1"
   id="svg1"
   inkscape:version="1.4.3 (0d15f75042, 2025-12-25)"
   sodipodi:docname="key_repeating.svg"
   xmlns:inkscape="http://www.inkscape.org/namespaces/inkscape"
   xmlns:sodipodi="http://sodipodi.sourceforge.net/DTD/sodipodi-0.dtd"
   xmlns="http://www.w3.org/2000/svg"
   xmlns:svg="http://www.w3.org/2000/svg">
  <sodipodi:namedview
     id="namedview1"
     pagecolor="#000000"
     bordercolor="#ffffff"
     borderopacity="0.25"
     inkscape:showpageshadow="2"
     inkscape:pageopacity="0.0"
     inkscape:pagecheckerboard="0"
     inkscape:deskcolor="#d1d1d1"
     inkscape:document-units="mm"
     inkscape:zoom="1.5452077"
     inkscape:cx="259.51204"
     inkscape:cy="184.44122"
     inkscape:window-width="1805"
     inkscape:window-height="1107"
     inkscape:window-x="0"
     inkscape:window-y="0"
     inkscape:window-maximized="1"
     inkscape:current-layer="layer1" />
  <defs
     id="defs1" />
  <g
     inkscape:label="Layer 1"
     inkscape:groupmode="layer"
     id="layer1"
     transform="translate(-68.791665,-104.51041)">
    <g
       id="Repeating"
       style="clip-rule:evenodd;fill-rule:evenodd;stroke-linejoin:round;stroke-miterlimit:1.5;fill:#ffffff;fill-opacity:1"
       transform="matrix(1.1024314,0,0,1.1024314,42.269414,-63.026093)">
      <path
         d="m 41.12,196.5 c 8.92,3.37 22.8,4.84 34.29,2.99 2.01,-0.32 11.26,-3.27 11.78,-2.74 3.02,11.29 7.44,22.75 9.81,35.25 H 31 c 2.6,-12.5 6.12,-24.61 10.12,-35.5 z m 2.32,4.58 c -2.5,7.96 -6.61,19.19 -7.38,27.42 h 55.88 l 0.57,-0.93 c 0,0 -7.23,-23.74 -7.63,-26.07 -11.81,2.71 -30.19,3.87 -41.44,-0.42 z"
         style="fill-rule:nonzero;fill:#ffffff;fill-opacity:1"
         id="path15" />
      <path
         d="m 57.48,151.97 14.27,0.28 0.5,19.5 4.33,0.31 c -0.52,2.15 -9.59,16.92 -9.58,17.31 v 1.13 H 87 V 194 H 41 v -3.5 h 21 c -2.52,-6.85 -7.27,-12.16 -10,-18.45 l 4.75,-0.3 c 0.87,-5.06 -0.51,-14.61 0.73,-19.78 z M 60.5,156 c -0.08,0.08 0.13,18.72 0,18.93 -0.48,0.8 -2.34,-0.46 -1.95,1.82 7.92,13.55 4.55,10.72 12.04,-0.88 -0.1,-0.56 -2.03,-0.77 -2.09,-0.87 -0.01,-0.01 0,-19 0,-19 z"
         style="display:none;fill-rule:nonzero;fill:#ffffff;fill-opacity:1"
         id="path16" />
    </g>
    <path
       style="display:inline;fill:#ffffff;fill-opacity:1;stroke:none;stroke-width:0;stroke-dasharray:none;stroke-opacity:1;paint-order:normal"
       d="m 105.765,104.51444 h 14.97957 v 22.79812 h 6.86233 l -14.08129,19.90086 -13.978183,-20.1812 H 105.765 Z"
       id="path1"
       sodipodi:nodetypes="cccccccc" />
    <path
       style="display:inline;fill:#ffffff;fill-opacity:1;stroke:#ffffff;stroke-width:4.23333;stroke-dasharray:none;stroke-opacity:1;paint-order:normal"
       d="M 87.470334,148.73264 H 138.19238"
       id="path2"
       sodipodi:nodetypes="cc" />
  </g>
</svg>
